<svg width="900" height="900" viewBox="0 0 900 900" fill="none" xmlns="http://www.w3.org/2000/svg">
<g filter="url(#filter0_d_8226_14204)">
<path d="M122.996 588.387C124.254 589.629 125.248 591.114 125.918 592.75C126.589 594.386 126.922 596.141 126.897 597.91C126.925 599.685 126.594 601.447 125.923 603.09C125.253 604.734 124.257 606.225 122.996 607.475C121.752 608.744 120.262 609.745 118.617 610.416C116.971 611.087 115.206 611.414 113.43 611.376C111.66 611.41 109.902 611.082 108.264 610.411C106.626 609.74 105.143 608.741 103.906 607.475C102.637 606.231 101.636 604.741 100.965 603.096C100.294 601.451 99.9667 599.686 100.004 597.91C99.97 596.14 100.299 594.382 100.97 592.744C101.641 591.107 102.64 589.623 103.906 588.387C105.143 587.121 106.626 586.121 108.264 585.45C109.902 584.779 111.66 584.451 113.43 584.485C115.206 584.448 116.971 584.774 118.617 585.445C120.262 586.116 121.752 587.117 122.996 588.387ZM122.996 615.236C125.494 617.784 126.893 621.211 126.893 624.78C126.893 628.348 125.494 631.775 122.996 634.324C121.759 635.608 120.272 636.625 118.627 637.31C116.981 637.996 115.212 638.336 113.43 638.309C111.66 638.343 109.902 638.015 108.264 637.344C106.626 636.673 105.143 635.674 103.906 634.408C102.63 633.161 101.624 631.664 100.953 630.011C100.281 628.358 99.9584 626.584 100.004 624.801C99.9667 623.024 100.294 621.259 100.965 619.614C101.636 617.969 102.637 616.479 103.906 615.236C105.151 613.983 106.637 612.996 108.273 612.332C109.91 611.669 111.664 611.344 113.43 611.376C115.202 611.34 116.964 611.664 118.608 612.327C120.252 612.991 121.744 613.98 122.996 615.236ZM122.996 642.127C125.494 644.675 126.893 648.102 126.893 651.671C126.893 655.239 125.494 658.666 122.996 661.215C121.752 662.484 120.262 663.485 118.617 664.156C116.971 664.827 115.206 665.154 113.43 665.116C111.66 665.15 109.902 664.822 108.264 664.151C106.626 663.48 105.143 662.481 103.906 661.215C101.408 658.666 100.008 655.239 100.008 651.671C100.008 648.102 101.408 644.675 103.906 642.127C105.15 640.876 106.637 639.892 108.274 639.236C109.912 638.579 111.666 638.264 113.43 638.309C115.2 638.261 116.962 638.574 118.607 639.231C120.252 639.887 121.745 640.873 122.996 642.127ZM122.996 668.976C125.494 671.524 126.893 674.951 126.893 678.52C126.893 682.088 125.494 685.515 122.996 688.064C121.752 689.333 120.262 690.334 118.617 691.005C116.971 691.676 115.206 692.003 113.43 691.965C111.66 691.999 109.902 691.671 108.264 691C106.626 690.329 105.143 689.33 103.906 688.064C101.408 685.515 100.008 682.088 100.008 678.52C100.008 674.951 101.408 671.524 103.906 668.976C105.151 667.723 106.637 666.736 108.273 666.072C109.91 665.409 111.664 665.084 113.43 665.116C115.202 665.081 116.964 665.404 118.608 666.067C120.252 666.731 121.744 667.72 122.996 668.976ZM122.996 695.867C125.494 698.415 126.893 701.842 126.893 705.411C126.893 708.979 125.494 712.406 122.996 714.955C121.752 716.224 120.262 717.225 118.617 717.896C116.971 718.567 115.206 718.894 113.43 718.856C111.66 718.89 109.902 718.562 108.264 717.891C106.626 717.22 105.143 716.221 103.906 714.955C101.408 712.406 100.008 708.979 100.008 705.411C100.008 701.842 101.408 698.415 103.906 695.867C105.143 694.601 106.626 693.601 108.264 692.93C109.902 692.259 111.66 691.931 113.43 691.965C115.206 691.928 116.971 692.254 118.617 692.925C120.262 693.597 121.752 694.597 122.996 695.867ZM122.996 722.716C124.253 723.968 125.246 725.46 125.916 727.103C126.587 728.746 126.92 730.506 126.897 732.281C126.909 734.05 126.568 735.804 125.894 737.441C125.221 739.078 124.229 740.564 122.975 741.813C121.722 743.062 120.232 744.05 118.594 744.718C116.955 745.386 115.2 745.722 113.43 745.705C111.66 745.739 109.902 745.411 108.264 744.74C106.626 744.069 105.143 743.07 103.906 741.804C102.638 740.568 101.637 739.086 100.966 737.447C100.295 735.809 99.9675 734.051 100.004 732.281C99.9817 730.512 100.314 728.756 100.98 727.117C101.647 725.478 102.635 723.989 103.886 722.738C105.137 721.487 106.626 720.499 108.266 719.832C109.905 719.165 111.661 718.834 113.43 718.856C115.202 718.821 116.964 719.144 118.608 719.807C120.252 720.471 121.744 721.46 122.996 722.716ZM149.847 588.47C151.113 589.707 152.112 591.19 152.783 592.828C153.454 594.466 153.783 596.224 153.748 597.994C153.786 599.77 153.459 601.535 152.788 603.18C152.117 604.825 151.116 606.315 149.847 607.558C148.61 608.824 147.126 609.824 145.489 610.495C143.851 611.166 142.093 611.494 140.323 611.46C138.55 611.483 136.791 611.149 135.149 610.48C133.507 609.811 132.016 608.819 130.764 607.564C129.512 606.308 128.525 604.814 127.861 603.17C127.197 601.527 126.869 599.766 126.897 597.994C126.863 596.217 127.187 594.452 127.849 592.804C128.51 591.155 129.496 589.656 130.749 588.396C132.001 587.136 133.494 586.14 135.139 585.469C136.783 584.797 138.546 584.462 140.323 584.485C142.093 584.451 143.851 584.779 145.489 585.45C147.126 586.121 148.61 587.121 149.847 588.387V588.47ZM149.847 615.32C151.116 616.563 152.117 618.053 152.788 619.698C153.459 621.343 153.786 623.108 153.748 624.885C153.76 626.651 153.42 628.401 152.749 630.035C152.078 631.669 151.09 633.153 149.841 634.402C148.592 635.651 147.108 636.639 145.474 637.31C143.84 637.981 142.089 638.32 140.323 638.309C138.554 638.332 136.798 638 135.159 637.333C133.52 636.666 132.031 635.678 130.779 634.427C129.528 633.176 128.54 631.687 127.873 630.048C127.207 628.409 126.875 626.654 126.897 624.885C126.84 623.097 127.154 621.317 127.818 619.656C128.482 617.996 129.483 616.491 130.757 615.236C132.009 613.98 133.501 612.991 135.145 612.327C136.789 611.664 138.55 611.34 140.323 611.376C142.089 611.344 143.843 611.669 145.479 612.332C147.116 612.996 148.602 613.983 149.847 615.236V615.32ZM149.847 642.211C152.345 644.759 153.744 648.186 153.744 651.755C153.744 655.323 152.345 658.75 149.847 661.299C148.61 662.565 147.126 663.564 145.489 664.235C143.851 664.906 142.093 665.234 140.323 665.2C138.55 665.223 136.791 664.89 135.149 664.22C133.507 663.551 132.016 662.559 130.764 661.304C129.512 660.048 128.525 658.554 127.861 656.91C127.197 655.267 126.869 653.506 126.897 651.734C126.875 649.964 127.207 648.209 127.873 646.57C128.54 644.931 129.528 643.442 130.779 642.191C132.031 640.94 133.52 639.952 135.159 639.285C136.798 638.618 138.554 638.286 140.323 638.309C142.087 638.264 143.841 638.579 145.479 639.236C147.116 639.892 148.602 640.876 149.847 642.127V642.211ZM149.847 669.06C151.73 670.943 153.013 673.343 153.533 675.955C154.053 678.567 153.786 681.275 152.767 683.736C151.747 686.197 150.021 688.3 147.806 689.78C145.591 691.26 142.987 692.049 140.323 692.049C138.546 692.087 136.781 691.76 135.136 691.089C133.491 690.418 132.001 689.417 130.757 688.148C128.279 685.589 126.893 682.166 126.893 678.604C126.893 675.041 128.279 671.618 130.757 669.06C132.009 667.804 133.501 666.815 135.145 666.151C136.789 665.488 138.55 665.164 140.323 665.2C142.083 665.157 143.833 665.469 145.469 666.117C147.106 666.766 148.595 667.738 149.847 668.976V669.06ZM149.847 695.951C151.702 697.838 152.96 700.23 153.463 702.829C153.967 705.427 153.693 708.116 152.677 710.56C151.661 713.003 149.947 715.094 147.75 716.569C145.553 718.045 142.97 718.84 140.323 718.856C138.494 718.958 136.663 718.686 134.943 718.057C133.223 717.427 131.649 716.453 130.318 715.195C128.987 713.936 127.927 712.42 127.202 710.737C126.478 709.055 126.104 707.242 126.104 705.411C126.104 703.579 126.478 701.766 127.202 700.084C127.927 698.402 128.987 696.885 130.318 695.626C131.649 694.368 133.223 693.394 134.943 692.764C136.663 692.135 138.494 691.863 140.323 691.965C142.093 691.931 143.851 692.259 145.489 692.93C147.126 693.601 148.61 694.601 149.847 695.867V695.951ZM149.847 722.8C151.112 724.046 152.11 725.537 152.781 727.181C153.452 728.825 153.781 730.589 153.748 732.365C153.76 734.131 153.42 735.881 152.749 737.515C152.078 739.149 151.09 740.633 149.841 741.882C148.592 743.131 147.108 744.119 145.474 744.79C143.84 745.461 142.089 745.8 140.323 745.789C138.546 745.827 136.781 745.5 135.136 744.829C133.491 744.158 132.001 743.157 130.757 741.888C129.495 740.65 128.5 739.166 127.836 737.528C127.172 735.889 126.853 734.132 126.897 732.365C126.863 730.592 127.187 728.831 127.85 727.187C128.512 725.543 129.5 724.049 130.753 722.796C132.007 721.542 133.501 720.555 135.145 719.892C136.789 719.23 138.55 718.906 140.323 718.94C142.083 718.897 143.833 719.209 145.469 719.858C147.106 720.506 148.595 721.478 149.847 722.716V722.8ZM176.74 642.211C179.238 644.759 180.637 648.186 180.637 651.755C180.637 655.323 179.238 658.75 176.74 661.299C174.191 663.797 170.764 665.196 167.195 665.196C163.626 665.196 160.199 663.797 157.65 661.299C155.152 658.75 153.752 655.323 153.752 651.755C153.752 648.186 155.152 644.759 157.65 642.211C160.199 639.712 163.626 638.313 167.195 638.313C170.764 638.313 174.191 639.712 176.74 642.211ZM203.591 642.211C206.089 644.759 207.488 648.186 207.488 651.755C207.488 655.323 206.089 658.75 203.591 661.299C201.042 663.797 197.615 665.196 194.046 665.196C190.477 665.196 187.05 663.797 184.501 661.299C182.023 658.74 180.637 655.317 180.637 651.755C180.637 648.192 182.023 644.769 184.501 642.211C187.05 639.712 190.477 638.313 194.046 638.313C197.615 638.313 201.042 639.712 203.591 642.211ZM230.484 588.387C231.727 589.634 232.703 591.122 233.352 592.759C234.002 594.397 234.31 596.149 234.26 597.91C234.297 599.686 233.97 601.451 233.299 603.096C232.628 604.741 231.627 606.231 230.358 607.475C227.809 609.973 224.382 611.372 220.813 611.372C217.244 611.372 213.817 609.973 211.268 607.475C209.999 606.231 208.998 604.741 208.327 603.096C207.656 601.451 207.329 599.686 207.367 597.91C207.332 596.14 207.661 594.382 208.332 592.744C209.003 591.107 210.002 589.623 211.268 588.387C213.817 585.888 217.244 584.489 220.813 584.489C224.382 584.489 227.809 585.888 230.358 588.387H230.484ZM230.484 615.236C231.73 616.49 232.708 617.985 233.357 619.629C234.007 621.274 234.314 623.033 234.26 624.801C234.362 626.629 234.09 628.46 233.46 630.18C232.831 631.9 231.857 633.474 230.598 634.805C229.34 636.136 227.823 637.196 226.14 637.92C224.458 638.645 222.645 639.018 220.813 639.018C218.981 639.018 217.169 638.645 215.486 637.92C213.804 637.196 212.287 636.136 211.028 634.805C209.77 633.474 208.796 631.9 208.166 630.18C207.536 628.46 207.264 626.629 207.367 624.801C207.353 622.116 208.139 619.489 209.626 617.254C211.112 615.018 213.23 613.276 215.711 612.25C218.191 611.224 220.921 610.96 223.552 611.491C226.183 612.023 228.597 613.327 230.484 615.236ZM230.484 642.127C232.982 644.675 234.382 648.102 234.382 651.671C234.382 655.239 232.982 658.666 230.484 661.215C228.598 663.101 226.194 664.384 223.578 664.903C220.961 665.421 218.249 665.151 215.787 664.127C213.324 663.102 211.221 661.369 209.744 659.148C208.268 656.927 207.484 654.317 207.493 651.65C207.512 648.995 208.313 646.405 209.796 644.203C211.28 642.001 213.379 640.284 215.832 639.268C218.284 638.252 220.982 637.982 223.588 638.49C226.194 638.998 228.593 640.263 230.484 642.127ZM230.484 668.976C232.771 671.189 234.218 674.128 234.576 677.29C234.934 680.452 234.182 683.64 232.448 686.309C230.714 688.977 228.106 690.96 225.07 691.917C222.035 692.874 218.762 692.747 215.81 691.556C212.859 690.365 210.413 688.185 208.892 685.39C207.372 682.594 206.87 679.357 207.474 676.232C208.077 673.108 209.749 670.29 212.201 668.262C214.654 666.234 217.735 665.122 220.918 665.116C222.691 665.073 224.455 665.393 226.1 666.057C227.745 666.721 229.237 667.714 230.484 668.976ZM230.484 695.867C232.739 698.079 234.156 701.006 234.493 704.147C234.829 707.289 234.064 710.449 232.329 713.089C230.593 715.729 227.995 717.684 224.977 718.621C221.96 719.557 218.711 719.417 215.785 718.224C212.86 717.031 210.439 714.859 208.938 712.079C207.436 709.299 206.947 706.084 207.553 702.984C208.159 699.883 209.823 697.089 212.261 695.08C214.699 693.07 217.759 691.969 220.918 691.965C222.695 691.925 224.461 692.251 226.106 692.922C227.752 693.593 229.242 694.595 230.484 695.867ZM230.484 722.716C231.726 723.973 232.702 725.468 233.35 727.112C233.999 728.756 234.309 730.514 234.26 732.281C234.362 734.11 234.09 735.94 233.46 737.66C232.831 739.38 231.857 740.954 230.598 742.285C229.34 743.616 227.823 744.676 226.14 745.4C224.458 746.125 222.645 746.498 220.813 746.498C218.981 746.498 217.169 746.125 215.486 745.4C213.804 744.676 212.287 743.616 211.028 742.285C209.77 740.954 208.796 739.38 208.166 737.66C207.536 735.94 207.264 734.11 207.367 732.281C207.378 729.622 208.173 727.026 209.653 724.818C211.133 722.61 213.232 720.887 215.687 719.866C218.141 718.845 220.842 718.57 223.452 719.077C226.062 719.584 228.464 720.85 230.358 722.716H230.484Z" fill="url(#paint0_linear_8226_14204)"/>
<path d="M284.232 615.235C285.501 616.479 286.502 617.969 287.173 619.614C287.844 621.259 288.171 623.024 288.134 624.8C288.236 626.629 287.964 628.46 287.334 630.18C286.705 631.9 285.731 633.474 284.472 634.804C283.213 636.135 281.696 637.195 280.014 637.92C278.332 638.644 276.519 639.018 274.687 639.018C272.855 639.018 271.043 638.644 269.36 637.92C267.678 637.195 266.161 636.135 264.902 634.804C263.643 633.474 262.67 631.9 262.04 630.18C261.41 628.46 261.138 626.629 261.241 624.8C261.252 622.142 262.047 619.546 263.527 617.338C265.007 615.129 267.106 613.407 269.56 612.385C272.015 611.364 274.716 611.09 277.326 611.597C279.936 612.104 282.338 613.369 284.232 615.235ZM284.232 642.126C286.73 644.675 288.13 648.101 288.13 651.67C288.13 655.239 286.73 658.666 284.232 661.214C282.346 663.1 279.942 664.384 277.326 664.903C274.709 665.421 271.997 665.151 269.535 664.126C267.072 663.102 264.969 661.369 263.492 659.148C262.016 656.926 261.232 654.317 261.241 651.649C261.26 648.995 262.061 646.404 263.544 644.202C265.028 642 267.127 640.284 269.58 639.268C272.033 638.252 274.731 637.981 277.336 638.49C279.942 638.998 282.341 640.263 284.232 642.126ZM284.232 668.975C286.519 671.188 287.966 674.127 288.324 677.29C288.682 680.452 287.93 683.64 286.196 686.309C284.462 688.977 281.854 690.96 278.818 691.917C275.783 692.874 272.51 692.746 269.558 691.556C266.607 690.365 264.161 688.185 262.64 685.389C261.12 682.594 260.618 679.357 261.222 676.232C261.825 673.107 263.497 670.29 265.949 668.262C268.402 666.234 271.484 665.122 274.666 665.116C276.44 665.073 278.203 665.393 279.848 666.057C281.493 666.721 282.985 667.714 284.232 668.975ZM284.232 695.866C286.487 698.079 287.904 701.006 288.241 704.147C288.577 707.288 287.812 710.449 286.077 713.089C284.341 715.729 281.743 717.684 278.725 718.621C275.708 719.557 272.459 719.417 269.533 718.224C266.608 717.03 264.187 714.858 262.686 712.079C261.184 709.299 260.695 706.084 261.301 702.984C261.907 699.883 263.571 697.089 266.009 695.079C268.447 693.07 271.507 691.969 274.666 691.965C276.443 691.925 278.209 692.25 279.854 692.922C281.5 693.593 282.99 694.595 284.232 695.866ZM284.232 722.715C285.497 723.962 286.496 725.452 287.166 727.097C287.837 728.741 288.166 730.505 288.134 732.28C288.236 734.109 287.964 735.94 287.334 737.66C286.705 739.38 285.731 740.954 284.472 742.284C283.213 743.615 281.696 744.675 280.014 745.4C278.332 746.124 276.519 746.498 274.687 746.498C272.855 746.498 271.043 746.124 269.36 745.4C267.678 744.675 266.161 743.615 264.902 742.284C263.643 740.954 262.67 739.38 262.04 737.66C261.41 735.94 261.138 734.109 261.241 732.28C261.252 729.622 262.047 727.026 263.527 724.818C265.007 722.609 267.106 720.887 269.56 719.865C272.015 718.844 274.716 718.57 277.326 719.077C279.936 719.584 282.338 720.85 284.232 722.715ZM311.083 588.47C312.349 589.707 313.348 591.19 314.019 592.828C314.69 594.466 315.019 596.224 314.985 597.993C315.022 599.769 314.695 601.535 314.024 603.18C313.353 604.825 312.352 606.315 311.083 607.558C308.534 610.056 305.107 611.456 301.538 611.456C297.969 611.456 294.542 610.056 291.993 607.558C290.738 606.307 289.748 604.814 289.085 603.17C288.422 601.527 288.098 599.765 288.134 597.993C288.101 596.228 288.427 594.474 289.09 592.837C289.753 591.2 290.741 589.715 291.993 588.47C294.542 585.972 297.969 584.573 301.538 584.573C305.107 584.573 308.534 585.972 311.083 588.47ZM311.083 669.059C313.346 671.287 314.765 674.231 315.1 677.389C315.434 680.547 314.663 683.723 312.917 686.376C311.171 689.028 308.559 690.993 305.526 691.935C302.493 692.877 299.227 692.737 296.286 691.54C293.344 690.343 290.909 688.163 289.396 685.371C287.882 682.58 287.384 679.35 287.987 676.232C288.589 673.114 290.255 670.302 292.699 668.274C295.144 666.247 298.216 665.131 301.391 665.116C303.186 665.055 304.973 665.367 306.641 666.031C308.309 666.696 309.821 667.698 311.083 668.975V669.059ZM337.976 588.386C339.242 589.623 340.241 591.106 340.912 592.744C341.583 594.382 341.912 596.14 341.878 597.909C341.915 599.686 341.588 601.451 340.917 603.096C340.246 604.741 339.245 606.231 337.976 607.474C335.427 609.972 332 611.372 328.431 611.372C324.862 611.372 321.435 609.972 318.887 607.474C317.617 606.231 316.616 604.741 315.945 603.096C315.274 601.451 314.947 599.686 314.985 597.909C314.95 596.14 315.279 594.382 315.95 592.744C316.621 591.106 317.62 589.623 318.887 588.386C321.435 585.888 324.862 584.489 328.431 584.489C332 584.489 335.427 585.888 337.976 588.386ZM337.976 668.975C340.263 671.188 341.71 674.127 342.068 677.29C342.426 680.452 341.674 683.64 339.94 686.309C338.206 688.977 335.598 690.96 332.563 691.917C329.527 692.874 326.254 692.746 323.302 691.556C320.351 690.365 317.905 688.185 316.385 685.389C314.864 682.594 314.362 679.357 314.966 676.232C315.569 673.107 317.241 670.29 319.693 668.262C322.146 666.234 325.228 665.122 328.41 665.116C330.184 665.073 331.947 665.393 333.592 666.057C335.237 666.721 336.729 667.714 337.976 668.975ZM364.827 588.386C366.093 589.623 367.092 591.106 367.764 592.744C368.435 594.382 368.763 596.14 368.729 597.909C368.766 599.686 368.44 601.451 367.768 603.096C367.097 604.741 366.096 606.231 364.827 607.474C362.285 609.97 358.865 611.368 355.303 611.368C351.741 611.368 348.321 609.97 345.78 607.474C344.51 606.231 343.509 604.741 342.838 603.096C342.167 601.451 341.84 599.686 341.878 597.909C341.844 596.14 342.172 594.382 342.843 592.744C343.514 591.106 344.513 589.623 345.78 588.386C348.321 585.891 351.741 584.493 355.303 584.493C358.865 584.493 362.285 585.891 364.827 588.386ZM364.827 615.235C366.096 616.479 367.097 617.969 367.768 619.614C368.44 621.259 368.766 623.024 368.729 624.8C368.74 626.566 368.4 628.317 367.73 629.951C367.059 631.585 366.07 633.069 364.821 634.318C363.573 635.566 362.088 636.555 360.454 637.226C358.82 637.896 357.069 638.236 355.303 638.225C353.533 638.267 351.772 637.942 350.133 637.27C348.494 636.599 347.012 635.595 345.78 634.323C344.513 633.086 343.514 631.603 342.843 629.966C342.172 628.328 341.844 626.57 341.878 624.8C341.897 622.15 342.695 619.565 344.173 617.365C345.651 615.166 347.743 613.449 350.189 612.43C352.635 611.41 355.327 611.133 357.93 611.631C360.533 612.13 362.931 613.384 364.827 615.235ZM364.827 642.126C367.325 644.675 368.725 648.101 368.725 651.67C368.725 655.239 367.325 658.666 364.827 661.214C362.947 663.107 360.545 664.396 357.929 664.918C355.313 665.44 352.6 665.17 350.138 664.144C347.675 663.118 345.574 661.381 344.103 659.155C342.632 656.93 341.857 654.317 341.878 651.649C341.844 649.88 342.172 648.122 342.843 646.484C343.514 644.846 344.513 643.363 345.78 642.126C348.321 639.631 351.741 638.233 355.303 638.233C358.865 638.233 362.285 639.631 364.827 642.126ZM364.827 668.975C366.711 670.859 367.994 673.258 368.514 675.871C369.033 678.483 368.767 681.191 367.747 683.652C366.728 686.113 365.001 688.216 362.786 689.696C360.571 691.176 357.967 691.965 355.303 691.965C353.537 691.976 351.786 691.636 350.152 690.966C348.519 690.295 347.034 689.307 345.785 688.058C344.536 686.809 343.548 685.325 342.877 683.691C342.206 682.057 341.867 680.306 341.878 678.54C341.897 675.89 342.695 673.305 344.173 671.105C345.651 668.906 347.743 667.189 350.189 666.17C352.635 665.15 355.327 664.873 357.93 665.371C360.533 665.87 362.931 667.124 364.827 668.975ZM364.827 695.866C366.711 697.75 367.994 700.149 368.514 702.762C369.033 705.374 368.767 708.082 367.747 710.543C366.728 713.004 365.001 715.107 362.786 716.587C360.571 718.067 357.967 718.856 355.303 718.856C353.533 718.898 351.772 718.573 350.133 717.901C348.494 717.23 347.012 716.226 345.78 714.954C343.281 712.406 341.882 708.979 341.882 705.41C341.882 701.842 343.281 698.415 345.78 695.866C348.321 693.371 351.741 691.973 355.303 691.973C358.865 691.973 362.285 693.371 364.827 695.866ZM364.827 722.715C366.092 723.962 367.091 725.452 367.762 727.097C368.432 728.741 368.761 730.505 368.729 732.28C368.729 735.841 367.314 739.255 364.797 741.773C362.279 744.291 358.864 745.705 355.303 745.705C351.743 745.705 348.328 744.291 345.81 741.773C343.292 739.255 341.878 735.841 341.878 732.28C341.897 729.631 342.695 727.045 344.173 724.845C345.651 722.646 347.743 720.929 350.189 719.91C352.635 718.89 355.327 718.613 357.93 719.112C360.533 719.61 362.931 720.864 364.827 722.715ZM391.72 615.235C392.989 616.479 393.99 617.969 394.661 619.614C395.333 621.259 395.659 623.024 395.622 624.8C395.724 626.629 395.452 628.46 394.823 630.18C394.193 631.9 393.219 633.474 391.96 634.804C390.702 636.135 389.185 637.195 387.502 637.92C385.82 638.644 384.007 639.018 382.175 639.018C380.343 639.018 378.531 638.644 376.848 637.92C375.166 637.195 373.649 636.135 372.39 634.804C371.132 633.474 370.158 631.9 369.528 630.18C368.899 628.46 368.627 626.629 368.729 624.8C368.74 622.142 369.535 619.546 371.015 617.338C372.495 615.129 374.594 613.407 377.049 612.385C379.503 611.364 382.205 611.09 384.814 611.597C387.424 612.104 389.826 613.369 391.72 615.235ZM391.72 642.126C394.218 644.675 395.618 648.101 395.618 651.67C395.618 655.239 394.218 658.666 391.72 661.214C389.834 663.1 387.43 664.384 384.814 664.903C382.197 665.421 379.486 665.151 377.023 664.126C374.56 663.102 372.457 661.369 370.98 659.148C369.504 656.926 368.72 654.317 368.729 651.649C368.748 648.995 369.55 646.404 371.033 644.202C372.516 642 374.615 640.284 377.068 639.268C379.521 638.252 382.219 637.981 384.825 638.49C387.431 638.998 389.829 640.263 391.72 642.126ZM391.72 668.975C394.007 671.188 395.454 674.127 395.812 677.29C396.17 680.452 395.418 683.64 393.684 686.309C391.95 688.977 389.342 690.96 386.307 691.917C383.272 692.874 379.998 692.746 377.047 691.556C374.095 690.365 371.65 688.185 370.129 685.389C368.608 682.594 368.106 679.357 368.71 676.232C369.314 673.107 370.985 670.29 373.438 668.262C375.89 666.234 378.972 665.122 382.154 665.116C383.928 665.073 385.691 665.393 387.336 666.057C388.981 666.721 390.473 667.714 391.72 668.975ZM391.72 695.866C393.975 698.079 395.392 701.006 395.729 704.147C396.065 707.288 395.301 710.449 393.565 713.089C391.829 715.729 389.231 717.684 386.213 718.621C383.196 719.557 379.947 719.417 377.021 718.224C374.096 717.03 371.676 714.858 370.174 712.079C368.673 709.299 368.183 706.084 368.789 702.984C369.395 699.883 371.059 697.089 373.497 695.079C375.935 693.07 378.995 691.969 382.154 691.965C383.931 691.925 385.697 692.25 387.343 692.922C388.988 693.593 390.478 694.595 391.72 695.866ZM391.72 722.715C392.985 723.962 393.984 725.452 394.655 727.097C395.325 728.741 395.654 730.505 395.622 732.28C395.724 734.109 395.452 735.94 394.823 737.66C394.193 739.38 393.219 740.954 391.96 742.284C390.702 743.615 389.185 744.675 387.502 745.4C385.82 746.124 384.007 746.498 382.175 746.498C380.343 746.498 378.531 746.124 376.848 745.4C375.166 744.675 373.649 743.615 372.39 742.284C371.132 740.954 370.158 739.38 369.528 737.66C368.899 735.94 368.627 734.109 368.729 732.28C368.74 729.622 369.535 727.026 371.015 724.818C372.495 722.609 374.594 720.887 377.049 719.865C379.503 718.844 382.205 718.57 384.814 719.077C387.424 719.584 389.826 720.85 391.72 722.715Z" fill="url(#paint1_linear_8226_14204)"/>
<path d="M445.458 615.235C446.728 616.479 447.729 617.969 448.4 619.614C449.071 621.259 449.398 623.024 449.36 624.8C449.462 626.629 449.19 628.46 448.561 630.18C447.931 631.9 446.957 633.474 445.699 634.804C444.44 636.135 442.923 637.195 441.241 637.92C439.558 638.644 437.746 639.018 435.914 639.018C434.082 639.018 432.269 638.644 430.587 637.92C428.904 637.195 427.387 636.135 426.129 634.804C424.87 633.474 423.896 631.9 423.267 630.18C422.637 628.46 422.365 626.629 422.467 624.8C422.478 622.142 423.274 619.546 424.754 617.338C426.234 615.129 428.332 613.407 430.787 612.385C433.242 611.364 435.943 611.09 438.553 611.597C441.163 612.104 443.565 613.369 445.458 615.235ZM445.458 642.126C447.957 644.675 449.356 648.101 449.356 651.67C449.356 655.239 447.957 658.666 445.458 661.214C443.572 663.1 441.169 664.384 438.552 664.903C435.936 665.421 433.224 665.151 430.761 664.126C428.298 663.102 426.195 661.369 424.719 659.148C423.242 656.926 422.459 654.317 422.467 651.649C422.487 648.995 423.288 646.404 424.771 644.202C426.254 642 428.353 640.284 430.806 639.268C433.259 638.252 435.957 637.981 438.563 638.49C441.169 638.998 443.567 640.263 445.458 642.126ZM445.458 668.975C447.746 671.188 449.192 674.127 449.55 677.29C449.909 680.452 449.156 683.64 447.422 686.309C445.688 688.977 443.08 690.96 440.045 691.917C437.01 692.874 433.736 692.746 430.785 691.556C427.833 690.365 425.388 688.185 423.867 685.389C422.346 682.594 421.845 679.357 422.448 676.232C423.052 673.107 424.723 670.29 427.176 668.262C429.629 666.234 432.71 665.122 435.893 665.116C437.666 665.073 439.43 665.393 441.075 666.057C442.72 666.721 444.211 667.714 445.458 668.975ZM445.458 695.866C447.714 698.079 449.131 701.006 449.467 704.147C449.804 707.288 449.039 710.449 447.303 713.089C445.568 715.729 442.969 717.684 439.952 718.621C436.934 719.557 433.685 719.417 430.76 718.224C427.834 717.03 425.414 714.858 423.912 712.079C422.411 709.299 421.921 706.084 422.527 702.984C423.134 699.883 424.798 697.089 427.235 695.079C429.673 693.07 432.733 691.969 435.893 691.965C437.669 691.925 439.435 692.25 441.081 692.922C442.727 693.593 444.217 694.595 445.458 695.866ZM472.309 588.386C473.576 589.623 474.575 591.106 475.246 592.744C475.917 594.382 476.246 596.14 476.211 597.909C476.249 599.686 475.922 601.451 475.251 603.096C474.58 604.741 473.579 606.231 472.309 607.474C469.768 609.97 466.348 611.368 462.786 611.368C459.224 611.368 455.804 609.97 453.262 607.474C451.993 606.231 450.992 604.741 450.321 603.096C449.65 601.451 449.323 599.686 449.36 597.909C449.326 596.14 449.654 594.382 450.326 592.744C450.997 591.106 451.996 589.623 453.262 588.386C455.804 585.891 459.224 584.493 462.786 584.493C466.348 584.493 469.768 585.891 472.309 588.386ZM472.309 615.235C473.579 616.479 474.58 617.969 475.251 619.614C475.922 621.259 476.249 623.024 476.211 624.8C476.222 626.566 475.883 628.317 475.212 629.951C474.541 631.585 473.553 633.069 472.304 634.318C471.055 635.566 469.571 636.555 467.937 637.226C466.303 637.896 464.552 638.236 462.786 638.225C461.015 638.267 459.255 637.942 457.616 637.27C455.977 636.599 454.494 635.595 453.262 634.323C451.996 633.086 450.997 631.603 450.326 629.966C449.654 628.328 449.326 626.57 449.36 624.8C449.379 622.15 450.178 619.565 451.656 617.365C453.133 615.166 455.226 613.449 457.672 612.43C460.118 611.41 462.81 611.133 465.413 611.631C468.015 612.13 470.414 613.384 472.309 615.235ZM472.309 642.126C474.808 644.675 476.207 648.101 476.207 651.67C476.207 655.239 474.808 658.666 472.309 661.214C470.429 663.107 468.028 664.396 465.411 664.918C462.795 665.44 460.083 665.17 457.62 664.144C455.158 663.118 453.057 661.381 451.586 659.155C450.114 656.93 449.34 654.317 449.36 651.649C449.326 649.88 449.654 648.122 450.326 646.484C450.997 644.846 451.996 643.363 453.262 642.126C455.804 639.631 459.224 638.233 462.786 638.233C466.348 638.233 469.768 639.631 472.309 642.126ZM472.309 668.975C474.193 670.859 475.476 673.258 475.996 675.871C476.516 678.483 476.249 681.191 475.23 683.652C474.21 686.113 472.484 688.216 470.269 689.696C468.054 691.176 465.45 691.965 462.786 691.965C461.02 691.976 459.269 691.636 457.635 690.966C456.001 690.295 454.517 689.307 453.268 688.058C452.019 686.809 451.03 685.325 450.359 683.691C449.689 682.057 449.349 680.306 449.36 678.54C449.379 675.89 450.178 673.305 451.656 671.105C453.133 668.906 455.226 667.189 457.672 666.17C460.118 665.15 462.81 664.873 465.413 665.371C468.015 665.87 470.414 667.124 472.309 668.975ZM472.309 695.866C474.193 697.75 475.476 700.149 475.996 702.762C476.516 705.374 476.249 708.082 475.23 710.543C474.21 713.004 472.484 715.107 470.269 716.587C468.054 718.067 465.45 718.856 462.786 718.856C461.015 718.898 459.255 718.573 457.616 717.901C455.977 717.23 454.494 716.226 453.262 714.954C450.764 712.406 449.364 708.979 449.364 705.41C449.364 701.842 450.764 698.415 453.262 695.866C455.804 693.371 459.224 691.973 462.786 691.973C466.348 691.973 469.768 693.371 472.309 695.866ZM472.309 722.715C473.575 723.962 474.573 725.452 475.244 727.097C475.915 728.741 476.244 730.505 476.211 732.28C476.211 735.841 474.797 739.255 472.279 741.773C469.761 744.291 466.346 745.705 462.786 745.705C459.225 745.705 455.81 744.291 453.292 741.773C450.775 739.255 449.36 735.841 449.36 732.28C449.379 729.631 450.178 727.045 451.656 724.845C453.133 722.646 455.226 720.929 457.672 719.91C460.118 718.89 462.81 718.613 465.413 719.112C468.015 719.61 470.414 720.864 472.309 722.715ZM499.203 588.47C500.469 589.707 501.468 591.19 502.139 592.828C502.81 594.466 503.139 596.224 503.104 597.993C503.142 599.769 502.815 601.535 502.144 603.18C501.473 604.825 500.472 606.315 499.203 607.558C496.654 610.056 493.227 611.456 489.658 611.456C486.089 611.456 482.662 610.056 480.113 607.558C478.844 606.315 477.843 604.825 477.172 603.18C476.501 601.535 476.174 599.769 476.211 597.993C476.165 596.21 476.488 594.436 477.16 592.783C477.831 591.13 478.837 589.633 480.113 588.386C482.662 585.888 486.089 584.489 489.658 584.489C493.227 584.489 496.654 585.888 499.203 588.386V588.47ZM499.203 722.715C500.468 723.962 501.466 725.452 502.137 727.097C502.808 728.741 503.137 730.505 503.104 732.28C503.207 734.109 502.935 735.94 502.305 737.66C501.675 739.38 500.701 740.954 499.443 742.284C498.184 743.615 496.667 744.675 494.985 745.4C493.302 746.124 491.49 746.498 489.658 746.498C487.826 746.498 486.013 746.124 484.331 745.4C482.648 744.675 481.131 743.615 479.873 742.284C478.614 740.954 477.64 739.38 477.011 737.66C476.381 735.94 476.109 734.109 476.211 732.28C476.223 729.622 477.018 727.026 478.498 724.818C479.978 722.609 482.077 720.887 484.531 719.865C486.986 718.844 489.687 718.57 492.297 719.077C494.907 719.584 497.309 720.85 499.203 722.715ZM526.054 588.47C527.32 589.707 528.319 591.19 528.99 592.828C529.661 594.466 529.99 596.224 529.955 597.993C529.993 599.769 529.666 601.535 528.995 603.18C528.324 604.825 527.323 606.315 526.054 607.558C523.512 610.054 520.092 611.452 516.53 611.452C512.968 611.452 509.548 610.054 507.006 607.558C505.737 606.315 504.736 604.825 504.065 603.18C503.394 601.535 503.067 599.769 503.104 597.993C503.053 596.213 503.369 594.441 504.033 592.788C504.698 591.135 505.695 589.636 506.964 588.386C509.506 585.891 512.926 584.493 516.488 584.493C520.05 584.493 523.47 585.891 526.012 588.386L526.054 588.47ZM526.054 722.715C527.319 723.962 528.317 725.452 528.988 727.097C529.659 728.741 529.988 730.505 529.955 732.28C529.955 734.043 529.608 735.789 528.933 737.418C528.259 739.046 527.27 740.526 526.023 741.773C524.776 743.02 523.296 744.008 521.668 744.683C520.039 745.358 518.293 745.705 516.53 745.705C514.767 745.705 513.021 745.358 511.392 744.683C509.763 744.008 508.283 743.02 507.037 741.773C505.79 740.526 504.801 739.046 504.126 737.418C503.452 735.789 503.104 734.043 503.104 732.28C503.124 729.631 503.922 727.045 505.4 724.845C506.878 722.646 508.97 720.929 511.416 719.91C513.862 718.89 516.554 718.613 519.157 719.112C521.759 719.61 524.158 720.864 526.054 722.715ZM553.114 615.235C554.384 616.479 555.385 617.969 556.056 619.614C556.727 621.259 557.054 623.024 557.016 624.8C557.118 626.629 556.846 628.46 556.217 630.18C555.587 631.9 554.613 633.474 553.355 634.804C552.096 636.135 550.579 637.195 548.897 637.92C547.214 638.644 545.402 639.018 543.57 639.018C541.738 639.018 539.925 638.644 538.243 637.92C536.56 637.195 535.043 636.135 533.785 634.804C532.526 633.474 531.552 631.9 530.923 630.18C530.293 628.46 530.021 626.629 530.123 624.8C530.134 622.142 530.93 619.546 532.41 617.338C533.89 615.129 535.988 613.407 538.443 612.385C540.898 611.364 543.599 611.09 546.209 611.597C548.819 612.104 551.221 613.369 553.114 615.235ZM553.114 695.866C555.371 698.08 556.788 701.009 557.124 704.152C557.459 707.295 556.692 710.457 554.954 713.098C553.215 715.738 550.613 717.692 547.593 718.625C544.572 719.559 541.322 719.414 538.396 718.216C535.471 717.017 533.053 714.84 531.556 712.056C530.059 709.271 529.576 706.054 530.19 702.953C530.803 699.852 532.475 697.06 534.92 695.056C537.364 693.052 540.429 691.959 543.591 691.965C545.36 691.931 547.118 692.259 548.756 692.93C550.394 693.601 551.877 694.6 553.114 695.866Z" fill="url(#paint2_linear_8226_14204)"/>
<path d="M606.689 588.386C607.955 589.623 608.954 591.106 609.625 592.744C610.296 594.382 610.625 596.14 610.591 597.909C610.628 599.686 610.301 601.451 609.63 603.096C608.959 604.741 607.958 606.231 606.689 607.474C604.14 609.972 600.713 611.372 597.144 611.372C593.575 611.372 590.148 609.972 587.599 607.474C586.33 606.231 585.329 604.741 584.658 603.096C583.987 601.451 583.66 599.686 583.698 597.909C583.663 596.14 583.992 594.382 584.663 592.744C585.334 591.106 586.333 589.623 587.599 588.386C590.148 585.888 593.575 584.489 597.144 584.489C600.713 584.489 604.14 585.888 606.689 588.386ZM606.689 615.235C607.958 616.479 608.959 617.969 609.63 619.614C610.301 621.259 610.628 623.024 610.591 624.8C610.693 626.629 610.421 628.46 609.791 630.18C609.162 631.9 608.188 633.474 606.929 634.804C605.67 636.135 604.154 637.195 602.471 637.92C600.789 638.644 598.976 639.018 597.144 639.018C595.312 639.018 593.5 638.644 591.817 637.92C590.135 637.195 588.618 636.135 587.359 634.804C586.1 633.474 585.127 631.9 584.497 630.18C583.867 628.46 583.595 626.629 583.698 624.8C583.709 622.142 584.504 619.546 585.984 617.338C587.464 615.129 589.563 613.407 592.017 612.385C594.472 611.364 597.173 611.09 599.783 611.597C602.393 612.104 604.795 613.369 606.689 615.235ZM606.689 642.126C609.187 644.675 610.587 648.101 610.587 651.67C610.587 655.239 609.187 658.666 606.689 661.214C604.803 663.1 602.399 664.384 599.783 664.903C597.166 665.421 594.454 665.151 591.992 664.126C589.529 663.102 587.426 661.369 585.949 659.148C584.473 656.926 583.689 654.317 583.698 651.649C583.717 648.995 584.518 646.404 586.001 644.202C587.485 642 589.584 640.284 592.037 639.268C594.49 638.252 597.188 637.981 599.793 638.49C602.399 638.998 604.798 640.263 606.689 642.126ZM606.689 668.975C608.977 671.189 610.424 674.131 610.782 677.295C611.139 680.459 610.384 683.649 608.647 686.317C606.91 688.986 604.299 690.967 601.261 691.922C598.222 692.876 594.947 692.744 591.996 691.548C589.045 690.352 586.601 688.166 585.085 685.366C583.569 682.566 583.074 679.326 583.685 676.201C584.296 673.076 585.975 670.261 588.435 668.239C590.894 666.216 593.981 665.112 597.165 665.116C598.931 665.079 600.687 665.402 602.324 666.065C603.962 666.729 605.447 667.719 606.689 668.975ZM606.689 695.866C608.945 698.08 610.363 701.009 610.698 704.152C611.034 707.295 610.267 710.457 608.528 713.098C606.789 715.738 604.187 717.692 601.167 718.625C598.147 719.559 594.896 719.414 591.971 718.216C589.045 717.017 586.627 714.84 585.13 712.056C583.633 709.271 583.15 706.054 583.764 702.953C584.378 699.852 586.05 697.06 588.494 695.056C590.939 693.052 594.004 691.959 597.165 691.965C598.935 691.931 600.693 692.259 602.331 692.93C603.969 693.601 605.452 694.6 606.689 695.866ZM606.689 722.715C607.954 723.962 608.953 725.452 609.623 727.097C610.294 728.741 610.623 730.505 610.591 732.28C610.693 734.109 610.421 735.94 609.791 737.66C609.162 739.38 608.188 740.954 606.929 742.284C605.67 743.615 604.154 744.675 602.471 745.4C600.789 746.124 598.976 746.498 597.144 746.498C595.312 746.498 593.5 746.124 591.817 745.4C590.135 744.675 588.618 743.615 587.359 742.284C586.1 740.954 585.127 739.38 584.497 737.66C583.867 735.94 583.595 734.109 583.698 732.28C583.709 729.622 584.504 727.026 585.984 724.818C587.464 722.609 589.563 720.887 592.017 719.865C594.472 718.844 597.173 718.57 599.783 719.077C602.393 719.584 604.795 720.85 606.689 722.715ZM633.54 588.47C634.806 589.707 635.805 591.19 636.476 592.828C637.147 594.466 637.476 596.224 637.442 597.993C637.479 599.769 637.152 601.535 636.481 603.18C635.81 604.825 634.809 606.315 633.54 607.558C630.998 610.054 627.578 611.452 624.016 611.452C620.454 611.452 617.034 610.054 614.492 607.558C613.223 606.315 612.222 604.825 611.551 603.18C610.88 601.535 610.553 599.769 610.591 597.993C610.556 596.224 610.885 594.466 611.556 592.828C612.227 591.19 613.226 589.707 614.492 588.47C617.034 585.975 620.454 584.576 624.016 584.576C627.578 584.576 630.998 585.975 633.54 588.47ZM633.54 615.319C634.809 616.562 635.81 618.053 636.481 619.698C637.152 621.343 637.479 623.108 637.442 624.884C637.476 626.654 637.147 628.412 636.476 630.049C635.805 631.687 634.806 633.17 633.54 634.407C630.998 636.903 627.578 638.301 624.016 638.301C620.454 638.301 617.034 636.903 614.492 634.407C613.226 633.17 612.227 631.687 611.556 630.049C610.885 628.412 610.556 626.654 610.591 624.884C610.61 622.234 611.408 619.649 612.886 617.449C614.364 615.249 616.456 613.533 618.902 612.514C621.348 611.494 624.04 611.216 626.643 611.715C629.246 612.214 631.644 613.467 633.54 615.319ZM633.54 642.21C636.038 644.759 637.438 648.185 637.438 651.754C637.438 655.323 636.038 658.75 633.54 661.298C630.998 663.794 627.578 665.192 624.016 665.192C620.454 665.192 617.034 663.794 614.492 661.298C611.994 658.75 610.595 655.323 610.595 651.754C610.595 648.185 611.994 644.759 614.492 642.21C617.034 639.715 620.454 638.316 624.016 638.316C627.578 638.316 630.998 639.715 633.54 642.21ZM633.54 669.059C636.038 671.608 637.438 675.034 637.438 678.603C637.438 682.172 636.038 685.599 633.54 688.147C631.662 690.037 629.264 691.325 626.652 691.849C624.04 692.372 621.331 692.106 618.87 691.085C616.409 690.063 614.308 688.333 612.834 686.114C611.359 683.896 610.578 681.288 610.591 678.624C610.61 675.974 611.408 673.389 612.886 671.189C614.364 668.99 616.456 667.273 618.902 666.254C621.348 665.234 624.04 664.956 626.643 665.455C629.246 665.954 631.644 667.208 633.54 669.059ZM633.54 695.95C636.038 698.499 637.438 701.925 637.438 705.494C637.438 709.063 636.038 712.49 633.54 715.038C630.998 717.534 627.578 718.932 624.016 718.932C620.454 718.932 617.034 717.534 614.492 715.038C612.609 713.155 611.326 710.755 610.806 708.143C610.286 705.53 610.553 702.822 611.572 700.362C612.592 697.901 614.318 695.797 616.533 694.318C618.748 692.838 621.352 692.048 624.016 692.049C625.781 691.996 627.537 692.308 629.176 692.965C630.815 693.622 632.3 694.609 633.54 695.866V695.95ZM633.54 722.799C634.805 724.046 635.804 725.536 636.474 727.181C637.145 728.825 637.474 730.589 637.442 732.364C637.442 735.925 636.027 739.339 633.509 741.857C630.992 744.374 627.577 745.789 624.016 745.789C620.456 745.789 617.041 744.374 614.523 741.857C612.005 739.339 610.591 735.925 610.591 732.364C610.61 729.714 611.408 727.129 612.886 724.929C614.364 722.73 616.456 721.013 618.902 719.994C621.348 718.974 624.04 718.697 626.643 719.195C629.246 719.694 631.644 720.948 633.54 722.799ZM660.433 642.21C662.931 644.759 664.331 648.185 664.331 651.754C664.331 655.323 662.931 658.75 660.433 661.298C658.547 663.184 656.143 664.468 653.527 664.986C650.91 665.505 648.199 665.235 645.736 664.21C643.273 663.185 641.17 661.453 639.693 659.231C638.217 657.01 637.433 654.4 637.442 651.733C637.461 649.078 638.262 646.488 639.746 644.286C641.229 642.084 643.328 640.368 645.781 639.352C648.234 638.336 650.932 638.065 653.538 638.574C656.143 639.082 658.542 640.347 660.433 642.21ZM660.433 669.059C662.721 671.273 664.168 674.215 664.526 677.379C664.883 680.543 664.128 683.733 662.391 686.401C660.654 689.07 658.043 691.051 655.005 692.005C651.967 692.96 648.691 692.828 645.74 691.632C642.789 690.436 640.346 688.25 638.829 685.45C637.313 682.65 636.818 679.41 637.429 676.285C638.04 673.16 639.719 670.345 642.179 668.323C644.638 666.3 647.725 665.196 650.909 665.2C652.67 665.152 654.421 665.461 656.059 666.11C657.696 666.759 659.184 667.734 660.433 668.975V669.059ZM687.368 615.235C688.624 616.487 689.613 617.979 690.276 619.623C690.94 621.267 691.263 623.028 691.228 624.8C691.25 626.569 690.919 628.325 690.252 629.964C689.585 631.603 688.597 633.092 687.346 634.343C686.095 635.594 684.606 636.582 682.967 637.249C681.328 637.915 679.572 638.247 677.802 638.225C676.036 638.236 674.285 637.896 672.651 637.226C671.017 636.555 669.533 635.566 668.284 634.318C667.035 633.069 666.047 631.585 665.376 629.951C664.705 628.317 664.366 626.566 664.377 624.8C664.388 622.142 665.183 619.546 666.663 617.338C668.143 615.129 670.242 613.407 672.697 612.385C675.151 611.364 677.853 611.09 680.462 611.597C683.072 612.104 685.474 613.369 687.368 615.235ZM687.368 668.975C689.254 670.861 690.538 673.265 691.057 675.881C691.575 678.497 691.305 681.209 690.28 683.671C689.255 686.134 687.522 688.237 685.301 689.713C683.08 691.19 680.47 691.973 677.802 691.965C676.039 691.965 674.293 691.618 672.665 690.943C671.036 690.268 669.556 689.279 668.309 688.033C667.062 686.786 666.073 685.306 665.399 683.678C664.724 682.049 664.377 680.303 664.377 678.54C664.377 676.777 664.724 675.032 665.399 673.403C666.073 671.774 667.062 670.294 668.309 669.048C669.556 667.801 671.036 666.812 672.665 666.138C674.293 665.463 676.039 665.116 677.802 665.116C679.575 665.08 681.336 665.404 682.98 666.067C684.624 666.73 686.117 667.72 687.368 668.975ZM687.368 695.866C689.254 697.752 690.538 700.156 691.057 702.772C691.575 705.388 691.305 708.1 690.28 710.562C689.255 713.025 687.522 715.128 685.301 716.604C683.08 718.081 680.47 718.864 677.802 718.856C675.589 718.849 673.412 718.296 671.464 717.248C669.515 716.199 667.855 714.687 666.63 712.844C665.405 711.001 664.653 708.885 664.441 706.683C664.228 704.48 664.562 702.259 665.412 700.216C666.262 698.174 667.602 696.372 669.314 694.97C671.026 693.568 673.058 692.61 675.228 692.18C677.399 691.75 679.642 691.861 681.759 692.504C683.877 693.147 685.803 694.302 687.368 695.866ZM714.219 588.386C715.485 589.623 716.484 591.106 717.156 592.744C717.827 594.382 718.155 596.14 718.121 597.909C718.158 599.686 717.832 601.451 717.16 603.096C716.489 604.741 715.488 606.231 714.219 607.474C711.67 609.972 708.243 611.372 704.674 611.372C701.105 611.372 697.678 609.972 695.13 607.474C693.86 606.231 692.859 604.741 692.188 603.096C691.517 601.451 691.19 599.686 691.228 597.909C691.194 596.14 691.522 594.382 692.193 592.744C692.864 591.106 693.864 589.623 695.13 588.386C697.678 585.888 701.105 584.489 704.674 584.489C708.243 584.489 711.67 585.888 714.219 588.386ZM714.219 695.866C716.476 698.08 717.893 701.009 718.228 704.152C718.564 707.295 717.797 710.457 716.058 713.098C714.32 715.738 711.718 717.692 708.697 718.625C705.677 719.559 702.426 719.414 699.501 718.216C696.576 717.017 694.158 714.84 692.661 712.056C691.164 709.271 690.681 706.054 691.294 702.953C691.908 699.852 693.58 697.06 696.024 695.056C698.469 693.052 701.534 691.959 704.695 691.965C706.458 691.936 708.208 692.268 709.838 692.938C711.469 693.609 712.945 694.606 714.177 695.866H714.219ZM714.219 722.715C715.484 723.962 716.483 725.452 717.154 727.097C717.824 728.741 718.153 730.505 718.121 732.28C718.223 734.109 717.951 735.94 717.321 737.66C716.692 739.38 715.718 740.954 714.459 742.284C713.201 743.615 711.684 744.675 710.001 745.4C708.319 746.124 706.506 746.498 704.674 746.498C702.842 746.498 701.03 746.124 699.347 745.4C697.665 744.675 696.148 743.615 694.889 742.284C693.631 740.954 692.657 739.38 692.027 737.66C691.398 735.94 691.126 734.109 691.228 732.28C691.239 729.622 692.034 727.026 693.514 724.818C694.994 722.609 697.093 720.887 699.548 719.865C702.002 718.844 704.704 718.57 707.313 719.077C709.923 719.584 712.325 720.85 714.219 722.715Z" fill="url(#paint3_linear_8226_14204)"/>
</g>
<g filter="url(#filter1_d_8226_14204)">
<path d="M155.13 771.86H113.361V779.385H134.246V789.827H144.688V800.27H155.13V813.631H144.688V824.211H100V810.53H141.77V803.188H120.885V792.746H110.442V782.303H100V768.942H110.442V758.499H155.13V771.86Z" fill="white"/>
<path d="M217.787 771.86H196.902V824.211H183.541V771.86H162.656V758.499H217.787V771.86Z" fill="white"/>
<path d="M267.029 758.499H280.39V813.631H269.993V824.211H235.747V813.631H225.305V758.499H238.529V810.53H266.892L267.029 758.499Z" fill="white"/>
<path d="M332.602 758.499V768.942H343.045V813.631H332.602V824.211H287.914V758.499H332.602ZM301.275 810.53H329.729V771.86H301.275V810.53Z" fill="white"/>
<path d="M363.931 792.746V810.53H405.701V824.211H350.57V758.499H405.701V771.86H363.931V779.385H395.258V792.746H363.931Z" fill="white"/>
<path d="M434.107 792.746V782.303H426.583V824.211H413.223V758.499H426.583V768.942H437.026V779.385H447.468V789.827H454.947V758.499H468.308V824.211H454.947V803.188H444.504V792.746H434.107Z" fill="white"/>
<path d="M530.969 771.86H510.084V824.211H496.723V771.86H475.656V758.499H530.969V771.86Z" fill="white"/>
<path d="M580.802 758.5V810.53H612.084V824.211H567.441V758.5H580.802Z" fill="white"/>
<path d="M664.296 771.861H653.854V810.53H664.296V824.211H630.051V810.53H640.493V771.861H630.051V758.5H664.296V771.861Z" fill="white"/>
<path d="M726.951 803.189H695.624V824.211H682.309V758.5H737.439V771.861H695.669V789.828H726.997L726.951 803.189Z" fill="white"/>
<path d="M758.279 792.746V810.53H800.003V824.211H744.918V758.5H800.003V771.861H758.279V779.385H789.606V792.746H758.279Z" fill="white"/>
</g>
<g filter="url(#filter2_d_8226_14204)">
<path d="M747.548 699.948C748.173 699.942 748.793 700.06 749.373 700.296C749.952 700.531 750.479 700.879 750.923 701.319C751.367 701.759 751.719 702.282 751.96 702.859C752.2 703.436 752.324 704.055 752.324 704.68C752.342 705.304 752.228 705.926 751.99 706.503C751.752 707.08 751.395 707.601 750.941 708.031C750.041 708.913 748.83 709.407 747.569 709.407C746.308 709.407 745.097 708.913 744.197 708.031C743.744 707.601 743.386 707.08 743.148 706.503C742.91 705.926 742.796 705.304 742.814 704.68C742.814 703.425 743.313 702.221 744.201 701.334C745.089 700.446 746.293 699.948 747.548 699.948ZM747.548 709.413C748.191 709.406 748.829 709.531 749.422 709.779C750.016 710.028 750.552 710.394 750.999 710.857C751.446 711.319 751.794 711.868 752.022 712.469C752.25 713.071 752.352 713.712 752.324 714.355C752.342 714.979 752.228 715.6 751.99 716.177C751.752 716.755 751.395 717.275 750.941 717.705C750.041 718.587 748.83 719.082 747.569 719.082C746.308 719.082 745.097 718.587 744.197 717.705C743.744 717.275 743.386 716.755 743.148 716.177C742.91 715.6 742.796 714.979 742.814 714.355C742.814 713.099 743.313 711.896 744.201 711.008C745.089 710.121 746.293 709.622 747.548 709.622V709.413ZM747.548 718.878C748.173 718.872 748.793 718.99 749.373 719.226C749.952 719.461 750.479 719.809 750.923 720.249C751.367 720.689 751.719 721.212 751.96 721.789C752.2 722.366 752.324 722.985 752.324 723.61C752.342 724.234 752.228 724.855 751.99 725.433C751.752 726.01 751.395 726.531 750.941 726.96C750.041 727.843 748.83 728.337 747.569 728.337C746.308 728.337 745.097 727.843 744.197 726.96C743.744 726.531 743.386 726.01 743.148 725.433C742.91 724.855 742.796 724.234 742.814 723.61C742.814 722.355 743.313 721.151 744.201 720.264C745.089 719.376 746.293 718.878 747.548 718.878ZM747.548 728.343C748.489 728.344 749.408 728.624 750.19 729.146C750.973 729.668 751.584 730.41 751.946 731.277C752.309 732.145 752.407 733.101 752.228 734.024C752.049 734.947 751.602 735.797 750.941 736.467C750.031 737.33 748.824 737.812 747.569 737.812C746.314 737.812 745.107 737.33 744.197 736.467C743.539 735.8 743.092 734.954 742.912 734.034C742.732 733.115 742.827 732.163 743.184 731.297C743.541 730.43 744.145 729.688 744.921 729.163C745.698 728.638 746.611 728.352 747.548 728.343ZM747.548 737.807C748.489 737.809 749.408 738.089 750.19 738.611C750.973 739.133 751.584 739.874 751.946 740.742C752.309 741.61 752.407 742.566 752.228 743.489C752.049 744.412 751.602 745.262 750.941 745.932C750.031 746.795 748.824 747.276 747.569 747.276C746.314 747.276 745.107 746.795 744.197 745.932C743.539 745.265 743.092 744.419 742.912 743.499C742.732 742.58 742.827 741.628 743.184 740.761C743.541 739.895 744.145 739.153 744.921 738.628C745.698 738.103 746.611 737.817 747.548 737.807ZM757.058 718.878C757.679 718.872 758.295 718.991 758.87 719.227C759.444 719.463 759.966 719.812 760.403 720.254C760.84 720.695 761.185 721.219 761.416 721.796C761.647 722.372 761.761 722.989 761.749 723.61C761.773 724.231 761.666 724.85 761.435 725.428C761.204 726.005 760.855 726.527 760.409 726.96C759.508 727.843 758.298 728.337 757.037 728.337C755.776 728.337 754.565 727.843 753.664 726.96C753.219 726.527 752.869 726.005 752.638 725.428C752.407 724.85 752.3 724.231 752.324 723.61C752.308 722.99 752.418 722.373 752.649 721.797C752.879 721.221 753.225 720.698 753.664 720.26C754.105 719.81 754.634 719.455 755.218 719.217C755.801 718.979 756.428 718.864 757.058 718.878ZM766.525 718.878C767.781 718.878 768.985 719.376 769.873 720.264C770.76 721.151 771.259 722.355 771.259 723.61C771.277 724.234 771.164 724.855 770.925 725.433C770.687 726.01 770.33 726.531 769.877 726.96C768.981 727.776 767.812 728.225 766.601 728.217C765.39 728.209 764.226 727.746 763.341 726.919C762.888 726.489 762.531 725.968 762.293 725.391C762.054 724.814 761.941 724.192 761.959 723.568C761.959 722.943 762.083 722.324 762.323 721.747C762.564 721.171 762.916 720.647 763.36 720.207C763.804 719.767 764.331 719.419 764.91 719.184C765.489 718.949 766.109 718.83 766.735 718.836L766.525 718.878ZM775.993 718.878C777.248 718.878 778.452 719.376 779.34 720.264C780.228 721.151 780.727 722.355 780.727 723.61C780.745 724.234 780.631 724.855 780.393 725.433C780.155 726.01 779.797 726.531 779.344 726.96C778.682 727.624 777.838 728.076 776.919 728.259C775.999 728.443 775.046 728.349 774.18 727.99C773.314 727.631 772.574 727.023 772.054 726.244C771.534 725.464 771.257 724.547 771.259 723.61C771.246 722.36 771.728 721.156 772.6 720.26C773.031 719.82 773.546 719.471 774.114 719.234C774.683 718.996 775.293 718.875 775.909 718.878H775.993ZM785.46 718.878C786.716 718.878 787.92 719.376 788.808 720.264C789.695 721.151 790.194 722.355 790.194 723.61C790.212 724.234 790.099 724.855 789.86 725.433C789.622 726.01 789.265 726.531 788.812 726.96C788.15 727.624 787.305 728.076 786.386 728.259C785.467 728.443 784.514 728.349 783.648 727.99C782.782 727.631 782.042 727.023 781.522 726.244C781.002 725.464 780.725 724.547 780.727 723.61C780.713 722.36 781.195 721.156 782.067 720.26C782.508 719.81 783.037 719.455 783.62 719.217C784.204 718.979 784.83 718.864 785.46 718.878ZM794.928 718.878C796.183 718.878 797.387 719.376 798.275 720.264C799.163 721.151 799.662 722.355 799.662 723.61C799.68 724.234 799.566 724.855 799.328 725.433C799.09 726.01 798.732 726.531 798.279 726.96C797.617 727.624 796.773 728.076 795.854 728.259C794.934 728.443 793.981 728.349 793.115 727.99C792.249 727.631 791.509 727.023 790.989 726.244C790.469 725.464 790.193 724.547 790.194 723.61C790.181 722.36 790.663 721.156 791.535 720.26C791.976 719.81 792.504 719.455 793.088 719.217C793.672 718.979 794.298 718.864 794.928 718.878Z" fill="white"/>
<path d="M747.543 643.157C748.173 643.143 748.799 643.259 749.383 643.496C749.966 643.734 750.495 644.089 750.936 644.539C751.389 644.969 751.747 645.49 751.985 646.067C752.223 646.644 752.337 647.265 752.318 647.89C752.331 648.513 752.215 649.133 751.978 649.709C751.74 650.286 751.385 650.807 750.936 651.24C750.035 652.122 748.825 652.617 747.564 652.617C746.303 652.617 745.092 652.122 744.191 651.24C743.742 650.807 743.388 650.286 743.15 649.709C742.912 649.133 742.796 648.513 742.809 647.89C742.791 647.265 742.904 646.644 743.143 646.067C743.381 645.49 743.738 644.969 744.191 644.539C744.626 644.092 745.148 643.739 745.724 643.501C746.3 643.264 746.919 643.147 747.543 643.157ZM747.543 680.849C748.173 680.836 748.799 680.951 749.383 681.189C749.966 681.426 750.495 681.781 750.936 682.231C751.377 682.671 751.726 683.193 751.965 683.768C752.204 684.343 752.326 684.959 752.326 685.582C752.326 686.204 752.204 686.821 751.965 687.396C751.726 687.97 751.377 688.493 750.936 688.932C750.035 689.815 748.825 690.309 747.564 690.309C746.303 690.309 745.092 689.815 744.191 688.932C743.751 688.493 743.401 687.97 743.162 687.396C742.924 686.821 742.801 686.204 742.801 685.582C742.801 684.959 742.924 684.343 743.162 683.768C743.401 683.193 743.751 682.671 744.191 682.231C744.626 681.785 745.148 681.431 745.724 681.194C746.3 680.956 746.919 680.839 747.543 680.849ZM757.052 643.157C757.676 643.147 758.295 643.264 758.871 643.501C759.447 643.739 759.969 644.092 760.404 644.539C760.849 644.973 761.199 645.495 761.43 646.072C761.661 646.649 761.768 647.268 761.744 647.89C761.765 648.51 761.657 649.129 761.426 649.706C761.195 650.282 760.847 650.805 760.404 651.24C759.503 652.122 758.292 652.617 757.031 652.617C755.77 652.617 754.559 652.122 753.659 651.24C753.215 650.805 752.867 650.282 752.636 649.706C752.406 649.129 752.297 648.51 752.318 647.89C752.295 647.268 752.402 646.649 752.633 646.072C752.864 645.495 753.213 644.973 753.659 644.539C754.1 644.089 754.629 643.734 755.212 643.496C755.796 643.259 756.422 643.143 757.052 643.157ZM757.052 680.849C757.676 680.839 758.295 680.956 758.871 681.194C759.447 681.431 759.969 681.785 760.404 682.231C761.264 683.135 761.744 684.334 761.744 685.582C761.744 686.829 761.264 688.029 760.404 688.932C759.503 689.815 758.292 690.309 757.031 690.309C755.77 690.309 754.559 689.815 753.659 688.932C752.798 688.029 752.318 686.829 752.318 685.582C752.318 684.334 752.798 683.135 753.659 682.231C754.1 681.781 754.629 681.426 755.212 681.189C755.796 680.951 756.422 680.836 757.052 680.849ZM766.52 643.157C767.143 643.147 767.762 643.264 768.339 643.501C768.915 643.739 769.436 644.092 769.871 644.539C770.324 644.969 770.682 645.49 770.92 646.067C771.158 646.644 771.272 647.265 771.254 647.89C771.267 648.513 771.151 649.133 770.913 649.709C770.675 650.286 770.32 650.807 769.871 651.24C768.971 652.122 767.76 652.617 766.499 652.617C765.238 652.617 764.027 652.122 763.127 651.24C762.677 650.807 762.323 650.286 762.085 649.709C761.847 649.133 761.731 648.513 761.744 647.89C761.726 647.265 761.84 646.644 762.078 646.067C762.316 645.49 762.673 644.969 763.127 644.539C763.568 644.089 764.096 643.734 764.68 643.496C765.263 643.259 765.89 643.143 766.52 643.157ZM766.52 652.622C767.143 652.611 767.762 652.729 768.339 652.966C768.915 653.204 769.436 653.557 769.871 654.004C770.312 654.444 770.662 654.966 770.9 655.541C771.139 656.116 771.262 656.732 771.262 657.355C771.262 657.977 771.139 658.593 770.9 659.168C770.662 659.743 770.312 660.265 769.871 660.705C768.971 661.587 767.76 662.082 766.499 662.082C765.238 662.082 764.027 661.587 763.127 660.705C762.686 660.265 762.336 659.743 762.097 659.168C761.859 658.593 761.736 657.977 761.736 657.355C761.736 656.732 761.859 656.116 762.097 655.541C762.336 654.966 762.686 654.444 763.127 654.004C763.568 653.554 764.096 653.199 764.68 652.961C765.263 652.724 765.89 652.608 766.52 652.622ZM766.52 662.087C767.143 662.076 767.762 662.194 768.339 662.431C768.915 662.669 769.436 663.022 769.871 663.469C770.312 663.909 770.662 664.431 770.9 665.006C771.139 665.581 771.262 666.197 771.262 666.819C771.262 667.442 771.139 668.058 770.9 668.633C770.662 669.208 770.312 669.73 769.871 670.17C768.971 671.052 767.76 671.547 766.499 671.547C765.238 671.547 764.027 671.052 763.127 670.17C762.686 669.73 762.336 669.208 762.097 668.633C761.859 668.058 761.736 667.442 761.736 666.819C761.736 666.197 761.859 665.581 762.097 665.006C762.336 664.431 762.686 663.909 763.127 663.469C763.568 663.019 764.096 662.664 764.68 662.426C765.263 662.189 765.89 662.073 766.52 662.087ZM766.52 671.552C767.143 671.541 767.762 671.659 768.339 671.896C768.915 672.134 769.436 672.487 769.871 672.934C770.312 673.374 770.662 673.896 770.9 674.471C771.139 675.046 771.262 675.662 771.262 676.284C771.262 676.907 771.139 677.523 770.9 678.098C770.662 678.673 770.312 679.195 769.871 679.635C768.971 680.517 767.76 681.012 766.499 681.012C765.238 681.012 764.027 680.517 763.127 679.635C762.686 679.195 762.336 678.673 762.097 678.098C761.859 677.523 761.736 676.907 761.736 676.284C761.736 675.662 761.859 675.046 762.097 674.471C762.336 673.896 762.686 673.374 763.127 672.934C763.568 672.484 764.096 672.129 764.68 671.891C765.263 671.654 765.89 671.538 766.52 671.552ZM766.52 681.017C767.143 681.006 767.762 681.123 768.339 681.361C768.915 681.599 769.436 681.952 769.871 682.399C770.312 682.839 770.662 683.361 770.9 683.936C771.139 684.511 771.262 685.127 771.262 685.749C771.262 686.372 771.139 686.988 770.9 687.563C770.662 688.138 770.312 688.66 769.871 689.1C768.997 689.938 767.839 690.417 766.628 690.44C765.417 690.463 764.242 690.03 763.336 689.225C762.895 688.786 762.545 688.264 762.307 687.689C762.068 687.114 761.945 686.497 761.945 685.875C761.945 685.253 762.068 684.636 762.307 684.061C762.545 683.486 762.895 682.964 763.336 682.525C763.727 682.046 764.211 681.651 764.758 681.364C765.305 681.076 765.904 680.901 766.52 680.849V681.017ZM775.904 643.157C776.527 643.147 777.146 643.264 777.722 643.501C778.299 643.739 778.82 644.092 779.255 644.539C779.708 644.969 780.065 645.49 780.304 646.067C780.542 646.644 780.656 647.265 780.637 647.89C780.65 648.513 780.534 649.133 780.296 649.709C780.059 650.286 779.704 650.807 779.255 651.24C778.354 652.122 777.144 652.617 775.883 652.617C774.622 652.617 773.411 652.122 772.51 651.24C772.075 650.799 771.732 650.276 771.502 649.7C771.271 649.125 771.159 648.509 771.17 647.89C771.158 647.265 771.273 646.644 771.507 646.065C771.741 645.486 772.089 644.96 772.531 644.518C772.973 644.076 773.499 643.728 774.079 643.494C774.658 643.26 775.279 643.146 775.904 643.157ZM775.904 680.849C776.527 680.839 777.146 680.956 777.722 681.194C778.299 681.431 778.82 681.785 779.255 682.231C779.696 682.671 780.045 683.193 780.284 683.768C780.523 684.343 780.645 684.959 780.645 685.582C780.645 686.204 780.523 686.821 780.284 687.396C780.045 687.97 779.696 688.493 779.255 688.932C778.354 689.815 777.144 690.309 775.883 690.309C774.622 690.309 773.411 689.815 772.51 688.932C771.844 688.268 771.391 687.42 771.209 686.497C771.027 685.574 771.124 684.618 771.488 683.75C771.853 682.883 772.467 682.143 773.253 681.627C774.04 681.11 774.963 680.839 775.904 680.849ZM785.371 643.157C785.994 643.147 786.613 643.264 787.19 643.501C787.766 643.739 788.288 644.092 788.722 644.539C789.176 644.969 789.533 645.49 789.771 646.067C790.01 646.644 790.123 647.265 790.105 647.89C790.118 648.513 790.002 649.133 789.764 649.709C789.526 650.286 789.172 650.807 788.722 651.24C787.822 652.122 786.611 652.617 785.35 652.617C784.089 652.617 782.878 652.122 781.978 651.24C781.542 650.799 781.199 650.276 780.969 649.7C780.739 649.125 780.626 648.509 780.637 647.89C780.626 647.258 780.743 646.63 780.982 646.045C781.221 645.46 781.577 644.93 782.027 644.487C782.478 644.044 783.015 643.698 783.604 643.469C784.193 643.24 784.823 643.134 785.455 643.157H785.371ZM785.371 680.849C785.994 680.839 786.613 680.956 787.19 681.194C787.766 681.431 788.288 681.785 788.722 682.231C789.163 682.671 789.513 683.193 789.752 683.768C789.99 684.343 790.113 684.959 790.113 685.582C790.113 686.204 789.99 686.821 789.752 687.396C789.513 687.97 789.163 688.493 788.722 688.932C787.822 689.815 786.611 690.309 785.35 690.309C784.089 690.309 782.878 689.815 781.978 688.932C781.312 688.268 780.859 687.42 780.676 686.497C780.494 685.574 780.592 684.618 780.956 683.75C781.32 682.883 781.935 682.143 782.721 681.627C783.507 681.11 784.43 680.839 785.371 680.849ZM794.839 643.157C795.462 643.147 796.081 643.264 796.657 643.501C797.234 643.739 797.755 644.092 798.19 644.539C798.643 644.969 799.001 645.49 799.239 646.067C799.477 646.644 799.591 647.265 799.572 647.89C799.586 648.513 799.47 649.133 799.232 649.709C798.994 650.286 798.639 650.807 798.19 651.24C797.29 652.122 796.079 652.617 794.818 652.617C793.557 652.617 792.346 652.122 791.445 651.24C791.01 650.799 790.667 650.276 790.437 649.7C790.207 649.125 790.094 648.509 790.105 647.89C790.093 647.258 790.21 646.63 790.449 646.045C790.688 645.46 791.044 644.93 791.495 644.487C791.946 644.044 792.482 643.698 793.072 643.469C793.661 643.24 794.291 643.134 794.922 643.157H794.839ZM794.839 680.849C795.462 680.839 796.081 680.956 796.657 681.194C797.234 681.431 797.755 681.785 798.19 682.231C798.631 682.671 798.981 683.193 799.219 683.768C799.458 684.343 799.581 684.959 799.581 685.582C799.581 686.204 799.458 686.821 799.219 687.396C798.981 687.97 798.631 688.493 798.19 688.932C797.29 689.815 796.079 690.309 794.818 690.309C793.557 690.309 792.346 689.815 791.445 688.932C790.779 688.268 790.326 687.42 790.144 686.497C789.962 685.574 790.059 684.618 790.423 683.75C790.788 682.883 791.402 682.143 792.189 681.627C792.975 681.11 793.898 680.839 794.839 680.849Z" fill="white"/>
<path d="M747.555 586.368C748.181 586.356 748.803 586.468 749.386 586.698C749.968 586.928 750.499 587.272 750.948 587.708C751.398 588.149 751.753 588.678 751.991 589.261C752.229 589.845 752.344 590.471 752.33 591.101C752.331 591.726 752.207 592.344 751.966 592.921C751.726 593.498 751.373 594.022 750.929 594.462C750.485 594.902 749.958 595.25 749.379 595.485C748.8 595.72 748.18 595.839 747.555 595.833C746.931 595.844 746.312 595.726 745.736 595.489C745.16 595.251 744.638 594.898 744.203 594.451C743.756 594.016 743.403 593.495 743.165 592.919C742.928 592.343 742.81 591.724 742.821 591.101C742.807 590.471 742.923 589.845 743.16 589.261C743.398 588.678 743.753 588.149 744.203 587.708C745.1 586.837 746.304 586.355 747.555 586.368ZM747.555 595.833C748.75 595.83 749.903 596.279 750.78 597.089C751.231 597.53 751.586 598.059 751.823 598.642C752.061 599.226 752.177 599.852 752.163 600.482C752.052 601.665 751.503 602.765 750.623 603.565C749.744 604.366 748.597 604.809 747.408 604.809C746.219 604.809 745.073 604.366 744.193 603.565C743.314 602.765 742.765 601.665 742.653 600.482C742.64 599.852 742.755 599.226 742.993 598.642C743.231 598.059 743.586 597.53 744.036 597.089C744.506 596.652 745.061 596.315 745.666 596.099C746.271 595.883 746.914 595.793 747.555 595.833ZM747.555 605.298C748.185 605.284 748.811 605.4 749.395 605.637C749.978 605.875 750.507 606.23 750.948 606.68C751.401 607.11 751.759 607.63 751.997 608.208C752.235 608.785 752.349 609.406 752.33 610.03C752.219 611.214 751.67 612.314 750.791 613.114C749.911 613.915 748.765 614.358 747.576 614.358C746.387 614.358 745.24 613.915 744.361 613.114C743.481 612.314 742.932 611.214 742.821 610.03C742.803 609.406 742.916 608.785 743.155 608.208C743.393 607.63 743.75 607.11 744.203 606.68C744.652 606.263 745.18 605.941 745.756 605.732C746.331 605.524 746.943 605.433 747.555 605.465V605.298ZM747.555 614.763C748.185 614.749 748.811 614.865 749.395 615.102C749.978 615.34 750.507 615.695 750.948 616.145C751.401 616.575 751.759 617.095 751.997 617.673C752.235 618.25 752.349 618.871 752.33 619.495C752.219 620.679 751.67 621.779 750.791 622.579C749.911 623.379 748.765 623.823 747.576 623.823C746.387 623.823 745.24 623.379 744.361 622.579C743.481 621.779 742.932 620.679 742.821 619.495C742.803 618.871 742.916 618.25 743.155 617.673C743.393 617.095 743.75 616.575 744.203 616.145C744.638 615.698 745.16 615.345 745.736 615.107C746.312 614.87 746.931 614.752 747.555 614.763ZM747.555 624.228C748.185 624.214 748.811 624.33 749.395 624.567C749.978 624.805 750.507 625.16 750.948 625.61C751.401 626.04 751.759 626.56 751.997 627.138C752.235 627.715 752.349 628.336 752.33 628.96C752.219 630.144 751.67 631.244 750.791 632.044C749.911 632.844 748.765 633.288 747.576 633.288C746.387 633.288 745.24 632.844 744.361 632.044C743.481 631.244 742.932 630.144 742.821 628.96C742.803 628.336 742.916 627.715 743.155 627.138C743.393 626.56 743.75 626.04 744.203 625.61C744.638 625.163 745.16 624.81 745.736 624.572C746.312 624.334 746.931 624.217 747.555 624.228ZM757.064 624.228C757.688 624.217 758.307 624.334 758.883 624.572C759.459 624.81 759.981 625.163 760.416 625.61C760.861 626.043 761.211 626.566 761.442 627.143C761.673 627.72 761.78 628.339 761.756 628.96C761.767 629.581 761.654 630.198 761.423 630.775C761.191 631.351 760.847 631.876 760.41 632.317C759.972 632.758 759.451 633.107 758.876 633.343C758.302 633.58 757.686 633.699 757.064 633.693C756.434 633.707 755.808 633.591 755.224 633.353C754.641 633.116 754.112 632.761 753.671 632.311C753.232 631.873 752.886 631.35 752.656 630.774C752.425 630.198 752.314 629.581 752.33 628.96C752.307 628.339 752.414 627.72 752.645 627.143C752.876 626.566 753.225 626.043 753.671 625.61C754.112 625.16 754.641 624.805 755.224 624.567C755.808 624.33 756.434 624.214 757.064 624.228ZM766.532 595.833C767.782 595.82 768.987 596.302 769.883 597.173C770.333 597.614 770.688 598.143 770.926 598.726C771.164 599.31 771.279 599.936 771.266 600.565C771.154 601.749 770.605 602.849 769.726 603.649C768.847 604.45 767.7 604.893 766.511 604.893C765.322 604.893 764.175 604.45 763.296 603.649C762.416 602.849 761.867 601.749 761.756 600.565C761.757 599.906 761.9 599.254 762.174 598.655C762.449 598.055 762.849 597.521 763.348 597.089C764.215 596.288 765.351 595.84 766.532 595.833ZM766.532 605.298C767.155 605.287 767.774 605.405 768.351 605.642C768.927 605.88 769.449 606.233 769.883 606.68C770.336 607.11 770.694 607.63 770.932 608.208C771.17 608.785 771.284 609.406 771.266 610.03C771.154 611.214 770.605 612.314 769.726 613.114C768.847 613.915 767.7 614.358 766.511 614.358C765.322 614.358 764.175 613.915 763.296 613.114C762.416 612.314 761.867 611.214 761.756 610.03C761.738 609.406 761.852 608.785 762.09 608.208C762.328 607.63 762.685 607.11 763.139 606.68C763.594 606.26 764.129 605.936 764.712 605.727C765.295 605.519 765.914 605.43 766.532 605.465V605.298ZM766.532 614.763C767.155 614.752 767.774 614.87 768.351 615.107C768.927 615.345 769.449 615.698 769.883 616.145C770.336 616.575 770.694 617.095 770.932 617.673C771.17 618.25 771.284 618.871 771.266 619.495C771.154 620.679 770.605 621.779 769.726 622.579C768.847 623.379 767.7 623.823 766.511 623.823C765.322 623.823 764.175 623.379 763.296 622.579C762.416 621.779 761.867 620.679 761.756 619.495C761.738 618.871 761.852 618.25 762.09 617.673C762.328 617.095 762.685 616.575 763.139 616.145C763.58 615.695 764.108 615.34 764.692 615.102C765.276 614.865 765.902 614.749 766.532 614.763ZM766.532 624.228C767.155 624.217 767.774 624.334 768.351 624.572C768.927 624.81 769.449 625.163 769.883 625.61C770.336 626.04 770.694 626.56 770.932 627.138C771.17 627.715 771.284 628.336 771.266 628.96C771.154 630.144 770.605 631.244 769.726 632.044C768.847 632.844 767.7 633.288 766.511 633.288C765.322 633.288 764.175 632.844 763.296 632.044C762.416 631.244 761.867 630.144 761.756 628.96C761.738 628.336 761.852 627.715 762.09 627.138C762.328 626.56 762.685 626.04 763.139 625.61C763.58 625.16 764.108 624.805 764.692 624.567C765.276 624.33 765.902 624.214 766.532 624.228ZM775.999 624.228C776.623 624.217 777.242 624.334 777.818 624.572C778.395 624.81 778.916 625.163 779.351 625.61C779.804 626.04 780.161 626.56 780.4 627.138C780.638 627.715 780.751 628.336 780.733 628.96C780.723 629.897 780.438 630.81 779.912 631.586C779.387 632.362 778.645 632.966 777.778 633.323C776.912 633.681 775.96 633.775 775.04 633.595C774.12 633.415 773.274 632.968 772.606 632.311C771.734 631.415 771.252 630.21 771.266 628.96C771.255 628.343 771.367 627.729 771.595 627.156C771.824 626.582 772.165 626.06 772.598 625.619C773.031 625.178 773.547 624.828 774.117 624.59C774.686 624.351 775.298 624.228 775.916 624.228H775.999ZM785.467 624.228C786.09 624.217 786.709 624.334 787.286 624.572C787.862 624.81 788.384 625.163 788.818 625.61C789.272 626.04 789.629 626.56 789.867 627.138C790.105 627.715 790.219 628.336 790.201 628.96C790.191 629.897 789.905 630.81 789.38 631.586C788.855 632.362 788.112 632.966 787.246 633.323C786.38 633.681 785.427 633.775 784.507 633.595C783.588 633.415 782.741 632.968 782.074 632.311C781.202 631.415 780.72 630.21 780.733 628.96C780.722 628.336 780.837 627.715 781.07 627.136C781.304 626.557 781.653 626.03 782.094 625.589C782.536 625.147 783.063 624.799 783.642 624.565C784.222 624.331 784.842 624.217 785.467 624.228ZM794.935 586.536C796.185 586.522 797.39 587.004 798.286 587.876C798.736 588.317 799.091 588.845 799.329 589.429C799.567 590.012 799.682 590.638 799.668 591.268C799.679 591.891 799.562 592.51 799.324 593.086C799.086 593.663 798.733 594.184 798.286 594.618C797.385 595.501 796.175 595.995 794.914 595.995C793.653 595.995 792.442 595.501 791.541 594.618C790.669 593.723 790.187 592.518 790.201 591.268C790.189 590.642 790.301 590.02 790.531 589.438C790.761 588.855 791.105 588.324 791.541 587.876C791.976 587.409 792.501 587.035 793.084 586.775C793.667 586.516 794.296 586.378 794.935 586.368V586.536ZM794.935 596.001C796.185 595.987 797.39 596.469 798.286 597.341C798.736 597.782 799.091 598.31 799.329 598.894C799.567 599.477 799.682 600.103 799.668 600.733C799.658 601.67 799.373 602.583 798.848 603.359C798.322 604.135 797.58 604.739 796.714 605.096C795.847 605.453 794.895 605.548 793.975 605.368C793.055 605.188 792.209 604.741 791.541 604.083C790.875 603.419 790.422 602.571 790.24 601.648C790.058 600.725 790.155 599.769 790.519 598.901C790.884 598.034 791.498 597.295 792.284 596.778C793.071 596.261 793.994 595.991 794.935 596.001ZM794.935 605.465C795.558 605.455 796.177 605.572 796.753 605.81C797.33 606.047 797.851 606.401 798.286 606.848C798.739 607.277 799.097 607.798 799.335 608.375C799.573 608.953 799.687 609.574 799.668 610.198C799.658 611.135 799.373 612.048 798.848 612.824C798.322 613.6 797.58 614.204 796.714 614.561C795.847 614.918 794.895 615.013 793.975 614.833C793.055 614.653 792.209 614.206 791.541 613.548C790.669 612.652 790.187 611.448 790.201 610.198C790.189 609.573 790.304 608.953 790.538 608.374C790.772 607.794 791.12 607.268 791.562 606.826C792.004 606.385 792.53 606.036 793.11 605.803C793.689 605.569 794.31 605.454 794.935 605.465ZM794.935 614.93C795.558 614.92 796.177 615.037 796.753 615.275C797.33 615.512 797.851 615.866 798.286 616.312C798.739 616.742 799.097 617.263 799.335 617.84C799.573 618.418 799.687 619.039 799.668 619.663C799.658 620.6 799.373 621.513 798.848 622.289C798.322 623.065 797.58 623.669 796.714 624.026C795.847 624.383 794.895 624.478 793.975 624.298C793.055 624.118 792.209 623.671 791.541 623.013C790.669 622.117 790.187 620.913 790.201 619.663C790.189 619.038 790.304 618.418 790.538 617.839C790.772 617.259 791.12 616.733 791.562 616.291C792.004 615.85 792.53 615.501 793.11 615.268C793.689 615.034 794.31 614.919 794.935 614.93ZM794.935 624.395C795.558 624.385 796.177 624.502 796.753 624.74C797.33 624.977 797.851 625.331 798.286 625.777C798.739 626.207 799.097 626.728 799.335 627.305C799.573 627.883 799.687 628.504 799.668 629.128C799.658 630.065 799.373 630.978 798.848 631.754C798.322 632.53 797.58 633.134 796.714 633.491C795.847 633.848 794.895 633.943 793.975 633.763C793.055 633.582 792.209 633.136 791.541 632.478C790.669 631.582 790.187 630.378 790.201 629.128C790.189 628.503 790.304 627.883 790.538 627.303C790.772 626.724 791.12 626.198 791.562 625.756C792.004 625.314 792.53 624.966 793.11 624.732C793.689 624.499 794.31 624.384 794.935 624.395Z" fill="white"/>
</g>
<g filter="url(#filter3_d_8226_14204)">
<path d="M573.403 236.397C566.381 239.613 559.296 241.988 551.792 243.021C537.498 244.992 525.875 240.601 517.556 228.573C514.668 224.395 512.312 219.844 509.463 215.634C506.619 211.429 503.628 207.29 500.393 203.381C496.144 198.252 490.303 196.988 483.943 197.476C478.16 197.925 472.383 198.74 466.6 198.798C455.881 198.907 446.568 195.088 438.648 187.803C429.245 179.157 424.039 168.464 422.101 155.89C419.745 140.627 422.499 126.134 428.487 112.232C445.342 73.1243 488.898 76.0319 495.65 76.0576C512.222 76.1217 528.314 78.8367 543.84 84.7995C554.122 88.7469 564.212 93.028 573.179 99.5556C589.36 111.327 601.869 126.064 609.148 144.883C612.126 152.579 613.609 160.634 614.34 168.875C615.072 177.091 614.206 185.094 612.19 193.015C608.808 206.295 601.657 217.129 590.784 225.492C585.387 229.639 579.777 233.47 573.397 236.391L573.403 236.397Z" fill="#FFB800"/>
<path d="M573.403 236.397C566.381 239.613 559.296 241.988 551.792 243.021C537.498 244.992 525.875 240.601 517.556 228.573C514.668 224.395 512.312 219.844 509.463 215.634C506.619 211.429 503.628 207.29 500.393 203.381C496.144 198.252 490.303 196.988 483.943 197.476C478.16 197.925 472.383 198.74 466.6 198.798C455.881 198.907 446.568 195.088 438.648 187.803C429.245 179.157 424.039 168.464 422.101 155.89C419.745 140.627 422.499 126.134 428.487 112.232C445.342 73.1243 488.898 76.0319 495.65 76.0576C512.222 76.1217 528.314 78.8367 543.84 84.7995C554.122 88.7469 564.212 93.028 573.179 99.5556C589.36 111.327 601.869 126.064 609.148 144.883C612.126 152.579 613.609 160.634 614.34 168.875C615.072 177.091 614.206 185.094 612.19 193.015C608.808 206.295 601.657 217.129 590.784 225.492C585.387 229.639 579.777 233.47 573.397 236.391L573.403 236.397Z" fill="url(#paint4_linear_8226_14204)"/>
<path d="M369.938 287.911C378.506 285.542 386.979 283.918 395.612 282.962C406.375 281.775 417.165 281.024 427.974 281.71C446.401 282.879 464.507 285.754 481.754 292.763C490.522 296.325 498.679 300.902 505.297 307.795C510.201 312.904 514.36 318.565 517.755 324.83C523.692 335.78 526.76 347.519 527.999 359.81C528.179 361.575 528.025 363.373 528.025 365.272C531.792 366.357 535.374 367.371 538.936 368.411C549.886 371.607 559.815 376.851 568.596 384.066C578.018 391.806 583.827 401.883 586.593 413.777C589.68 427.044 588.133 439.765 583.018 452.313C577.139 466.742 567.851 478.488 556.125 488.533C549.019 494.617 541.086 499.399 532.98 503.969C491.658 527.249 465.817 526.966 439.707 525.445C374.27 521.62 320.573 482.377 310.837 474.977C283.982 454.566 266.748 429.553 261.607 420.638C257.204 413.013 253.642 405.073 252.063 396.319C250.798 389.322 251.947 382.821 255.542 376.717C259.065 370.735 264.579 368.052 271.209 367.281C275.49 366.787 279.547 367.776 283.488 369.393C284.63 369.862 285.779 370.305 287.146 370.844C287.428 369.804 287.685 368.97 287.878 368.122C289.951 359.04 292.679 350.183 296.729 341.768C300.567 333.796 305.907 326.884 311.857 320.407C323.481 307.75 337.73 299.149 353.738 293.296C359.014 291.364 364.392 289.727 369.944 287.917L369.938 287.911Z" fill="#FFB800"/>
<path d="M369.938 287.911C378.506 285.542 386.979 283.918 395.612 282.962C406.375 281.775 417.165 281.024 427.974 281.71C446.401 282.879 464.507 285.754 481.754 292.763C490.522 296.325 498.679 300.902 505.297 307.795C510.201 312.904 514.36 318.565 517.755 324.83C523.692 335.78 526.76 347.519 527.999 359.81C528.179 361.575 528.025 363.373 528.025 365.272C531.792 366.357 535.374 367.371 538.936 368.411C549.886 371.607 559.815 376.851 568.596 384.066C578.018 391.806 583.827 401.883 586.593 413.777C589.68 427.044 588.133 439.765 583.018 452.313C577.139 466.742 567.851 478.488 556.125 488.533C549.019 494.617 541.086 499.399 532.98 503.969C491.658 527.249 465.817 526.966 439.707 525.445C374.27 521.62 320.573 482.377 310.837 474.977C283.982 454.566 266.748 429.553 261.607 420.638C257.204 413.013 253.642 405.073 252.063 396.319C250.798 389.322 251.947 382.821 255.542 376.717C259.065 370.735 264.579 368.052 271.209 367.281C275.49 366.787 279.547 367.776 283.488 369.393C284.63 369.862 285.779 370.305 287.146 370.844C287.428 369.804 287.685 368.97 287.878 368.122C289.951 359.04 292.679 350.183 296.729 341.768C300.567 333.796 305.907 326.884 311.857 320.407C323.481 307.75 337.73 299.149 353.738 293.296C359.014 291.364 364.392 289.727 369.944 287.917L369.938 287.911Z" fill="url(#paint5_linear_8226_14204)"/>
<path d="M266.289 210.889C273.644 209.683 281 208.508 288.349 207.263C305.037 204.439 321.795 202.263 338.657 200.735C352.745 199.458 366.782 197.533 380.833 195.793C390.832 194.561 400.569 192.545 409.529 187.456C418.714 182.237 422.822 174.381 421.936 164.208C421.076 154.33 416.609 146.499 407.09 142.077C399.857 138.714 392.206 137.668 384.427 137.193C381.718 137.026 379.844 136.326 378.599 133.817C374.106 124.728 366.847 118.765 358.31 114.343C369.908 108.637 382.354 104.561 396.012 102.924C400.396 102.398 402.726 99.7473 402.302 95.0105C401.879 90.2415 398.856 89.0092 394.761 89.1119C384.94 89.343 375.537 91.8333 366.635 95.6459C344.735 105.023 324.491 117.051 306.59 133.033C292.155 145.915 279.254 160.132 268.888 176.313C254.126 199.349 243.785 224.394 238.657 251.878C237.759 255.479 236.853 258.636 236.257 261.846C233.137 278.585 232.444 295.511 233.214 312.455C233.689 322.93 234.78 333.424 237.823 343.572C238.978 347.423 241.199 350.356 245.64 349.419C250.281 348.437 251.263 344.817 250.647 340.575C249.556 333.065 247.836 325.594 247.476 318.052C246.212 291.525 248.156 265.382 255.743 239.638C258.676 229.696 262.181 220.113 266.289 210.909V210.889ZM314.652 144.818C323.49 137.09 332.636 129.779 342.341 123.464C353.361 125.62 363.24 133.297 368.265 144.869C369.157 146.923 370.062 149.022 372.386 150.582C375.171 151.923 377.566 151.897 380.274 151.487C387.861 150.338 395.37 151.525 401.731 155.761C408.746 160.44 412.45 168.99 402.187 175.094C397.225 178.046 392.046 180.652 386.384 181.384C372.867 183.136 359.279 184.323 345.73 185.8C334.754 186.994 323.779 188.239 312.816 189.535C299.742 191.076 286.783 193.303 273.843 195.678C284.305 176.673 297.758 159.587 314.645 144.818H314.652ZM655.549 364.67C652.468 362.545 649.349 363.418 646.416 365.51C644.728 366.717 644.137 368.501 643.406 370.241C641.024 375.921 638.457 381.46 635.691 386.852C633.605 379.445 631.198 372.083 628.168 364.657C626.21 359.239 624.394 354.201 622.687 349.124C618.431 336.473 613.771 324.002 606.981 312.449C603.515 306.557 599.786 304.958 593.187 306.043C583.598 307.616 574.51 310.947 565.248 313.7C535.607 322.526 505.383 329.374 476.153 339.599C460.203 345.177 456.686 351.736 460.588 368.046C467.732 397.93 475.101 427.757 482.18 457.66C484.946 469.342 487.219 481.133 489.754 492.872C472.43 497.005 454.735 499.367 436.545 498.745C432.739 498.616 430.633 500.555 429.979 504.014C429.292 507.602 431.217 510.041 434.369 511.396C436.782 512.435 439.44 512.448 442.039 512.352C453.952 511.915 465.781 511.049 477.584 508.989C511.288 503.109 543.284 492.827 572.668 474.887C595.999 460.645 615.941 442.827 632.314 420.478C635.633 415.176 638.855 410.247 641.833 405.176C647.802 395.022 653.508 384.746 657.327 373.521C658.495 370.093 658.784 366.897 655.562 364.663L655.549 364.67ZM591.981 443.309C572.109 460.459 549.94 473.302 525.633 481.993C518.188 484.656 510.684 487.134 503.117 489.329C503.034 488.693 502.944 488.064 502.828 487.435C497.103 456.71 488.637 426.614 481.885 396.126C479.317 384.515 476.127 373.039 473.079 361.537C472.122 357.93 473.599 356.306 476.686 354.721C486.641 349.605 497.424 346.659 508.053 343.912C534.69 337.019 560.973 328.931 587.469 321.582C595.755 319.285 596.108 319.618 599.234 327.378C608.675 350.799 617.693 374.368 624.368 398.758C624.837 400.478 625.678 401.704 626.814 402.513C617.379 417.558 605.973 431.229 591.987 443.302L591.981 443.309ZM668.052 269.111C666.563 262.019 664.375 255.158 662 248.277C653.605 223.932 642.687 200.934 627.918 179.773C616.236 163.033 602.16 148.617 586.397 135.761C574.33 125.922 560.312 119.49 546.442 112.764C540.421 109.844 535.883 110.325 533.829 114.696C531.711 119.208 533.74 122.648 540.222 125.524C541.647 126.153 543.104 126.724 544.503 127.398C552.321 131.14 559.972 135.126 567.244 139.709C566.05 140.967 564.869 142.231 563.707 143.573C560.351 147.443 558.502 152.648 553.188 152.135C548.765 151.711 544.587 148.733 540.306 146.885C540.145 146.814 540.01 146.705 539.856 146.621C535.081 144.144 531.018 144.991 529.163 148.849C527.257 152.802 528.964 156.647 533.663 158.932C537.552 160.819 541.41 162.796 545.383 164.497C548.226 165.71 548.682 167.655 548.046 170.357C547.052 174.555 545.877 178.759 546.204 183.123C546.493 186.981 544.953 188.361 541.063 188.13C535.363 187.796 529.632 187.982 523.919 187.873C519.831 187.796 517.084 189.574 516.718 193.701C516.358 197.757 517.982 200.588 522.539 201.416C528.752 202.539 534.985 202.019 541.198 202.032C545.55 202.038 548.419 203.213 549.709 207.783C550.639 211.082 552.405 214.144 553.977 217.616C556.018 220.915 553.361 221.916 551.692 223.168C546.153 227.321 540.421 231.223 534.972 235.485C529.388 239.85 523.207 243.457 518.316 248.688C515.749 251.435 515.171 254.529 517.411 257.642C519.523 260.575 522.584 260.979 525.761 259.593C527.482 258.842 529.131 257.802 530.607 256.64C540.254 249.022 549.985 241.512 560.171 234.612C562.295 233.174 564.317 231.384 566.962 234.124C571.435 238.765 576.596 242.565 582.398 245.421C585.363 246.884 585.71 248.765 584.311 251.73C580.851 259.073 577.584 266.512 574.446 274.002C572.315 279.086 573.637 282.641 577.847 284.323C582.218 286.063 585.216 284.374 587.469 279.278C590.826 271.698 593.38 263.771 597.558 256.538C598.945 254.137 600.415 252.609 603.239 253.181C608.675 254.278 614.182 254.676 619.702 254.869C621.73 254.939 622.969 255.613 623.149 257.821C623.444 261.428 623.893 265.029 624.221 268.636C624.991 277.224 625.582 285.838 626.538 294.407C627.148 299.888 630.607 303.174 634.574 302.751C638.707 302.301 640.87 299.394 640.447 293.412C639.574 281.03 638.585 268.649 637.083 256.332C636.628 252.603 637.815 251.326 640.877 250.369C643.014 249.696 645.062 248.842 647.051 247.873C650.055 255.626 652.744 263.47 654.278 271.679C655.325 277.244 657.552 279.638 662.096 278.964C666.352 278.335 669.06 273.932 668.052 269.137V269.111ZM618.926 240.774C601.101 241.39 586.275 234.24 574.292 221.294C567.616 214.086 562.725 205.492 560.607 195.986C556.301 176.66 564.041 161.262 577.956 148.297C578.181 148.091 578.406 147.886 578.63 147.68C583.611 151.576 588.335 155.89 592.706 160.774C598.54 166.461 604.022 171.968 608.926 178.053C622.847 195.325 633.175 214.58 641.775 234.856C634.651 238.367 627.051 240.491 618.926 240.774ZM410.486 98.4572C409.356 95.7037 409.761 93.0079 412.09 90.877C414.953 88.2647 419.459 88.5856 421.763 91.5381C424.266 94.7537 423.252 99.0092 418.875 102.193C414.754 103.233 411.943 101.987 410.486 98.4508V98.4572ZM415.723 502.172C416.224 505.51 415.473 508.34 411.564 509.829C407.874 510.625 404.799 510.285 403.239 506.928C402.135 504.553 402.013 501.794 403.823 499.605C405.781 497.23 408.554 497.095 411.378 497.686C413.83 498.199 415.357 499.727 415.723 502.172ZM506.532 144.523C506.326 140.973 506.846 137.899 511.5 137C515.12 136.609 517.841 137.347 519.266 140.492C520.428 143.066 519.901 145.588 518.322 147.841C516.557 150.344 513.907 150.383 511.314 149.837C508.554 149.253 506.718 147.591 506.538 144.523H506.532ZM455.261 158.438C465.421 161.692 475.056 160.395 483.303 153.046C485.543 151.05 486.827 148.393 487.52 145.44C491.365 129.093 485.383 119.471 468.31 115.229C466.84 115.113 465.787 115.139 464.767 114.998C450.3 112.95 441.115 125.395 441.416 138.463C441.628 147.616 445.794 155.408 455.261 158.438ZM455.338 136.724C455.697 132.109 458.907 128.547 462.925 128.297C468.348 127.963 473.393 131.365 474.26 136.095C474.504 137.424 474.292 138.842 474.292 140.216C471.538 145.139 467.662 146.769 463.059 146.031C457.706 145.177 454.972 141.57 455.351 136.724H455.338ZM315.005 430.818C313.143 434.169 309.819 434.868 306.436 433.225C303.227 431.665 300.249 429.637 296.905 427.667C295.03 430.459 293.432 433.097 291.584 435.549C288.997 438.963 285.525 440.472 281.603 438.193C277.502 435.818 277.726 432.044 279.523 428.206C279.96 427.269 280.467 426.325 281.115 425.529C284.215 421.755 284.299 419.188 279.466 416.235C272.797 412.16 273.381 405.594 280.467 402.179C283.342 401.768 285.294 402.924 287.039 404.381C290.82 407.551 293.503 406.621 295.441 402.359C295.582 402.044 295.788 401.762 295.974 401.467C298.978 396.698 303.419 395.125 307.187 397.5C310.313 399.47 310.672 403.944 308.034 408.726C307.367 409.932 306.603 411.101 305.788 412.217C304.209 414.387 304.504 415.831 307.02 417.128C309.312 418.309 311.455 419.849 313.477 421.466C316.699 424.053 316.808 427.558 314.998 430.805L315.005 430.818ZM487.963 275.414C488.258 273.9 488.586 272.327 489.272 270.973C490.884 267.789 493.83 266.672 497.109 267.333C500.306 267.982 502.289 270.305 502.09 273.688C501.859 277.616 501.204 281.512 500.729 285.414C503.323 287.417 506.352 287.571 509.106 288.373C515.331 290.183 516.705 292.699 514.362 299.426C510.543 303.206 506.429 302.154 502.43 301.024C498.522 299.92 496.211 300.581 495.672 305.157C495.351 307.86 494.337 310.549 491.474 311.929C489.009 313.116 486.622 313.668 484.131 311.987C481.679 310.331 480.98 307.962 481.32 305.228C481.513 303.694 481.923 302.179 482.379 300.697C483.393 297.442 481.776 295.799 478.939 294.888C478.291 294.683 477.572 294.708 476.898 294.573C470.113 293.193 467.212 290.029 468.323 285.222C469.279 281.075 472.995 279.734 479.452 281.21C486.525 282.828 486.5 282.821 487.963 275.421V275.414ZM417.565 396.974C416.93 393.007 414.658 389.47 415.646 384.875C416.423 381.261 416.147 377.198 415.409 373.527C413.072 361.91 413.605 350.677 417.488 339.387C422.809 323.925 424.003 307.885 420.948 291.852C416.192 266.897 404.292 246.756 379.741 236.576C358.779 227.886 337.129 227.918 315.788 234.728C295.724 241.133 281.122 254.092 272.624 273.861C268.047 284.509 265.64 295.543 264.549 306.858C262.688 326.197 267.797 343.251 283.163 356.139C289.787 361.691 296.751 366.871 304.196 371.306C314.267 377.301 321.5 386.133 327.944 395.542C331.481 400.709 334.915 405.857 339.517 410.112C341.256 411.723 342.611 413.36 342.302 415.895C341.487 422.609 344.851 427.506 349.356 431.845C350.653 433.09 351.808 434.271 351.661 436.235C350.833 447.493 358.573 453.938 368.689 456.697C385.255 461.216 408.175 456.216 422.289 437.763C425.717 433.283 428.021 428.751 427.161 422.558C425.011 413.36 419.029 406.21 417.553 396.98L417.565 396.974ZM345.441 395.478C337.283 383.431 328.785 371.723 317.071 362.654C310.473 357.551 302.701 354.272 296.468 348.694C294.928 347.314 293.426 345.902 291.905 344.503C279.286 334.56 277.463 321.371 278.663 307.487C280.005 291.961 283.946 277.263 294.472 264.965C303.939 253.912 316.378 248.072 330.011 244.971C340.293 242.635 350.987 242.693 361.423 245.093C386.295 250.819 400.377 267.064 406.808 291.159C410.512 305.048 409.067 318.476 405.12 331.929C403.811 336.403 402.822 340.973 401.404 345.408C398.74 353.765 399.536 362.153 401.038 370.51C401.943 375.523 401.737 380.53 401.449 385.504C401.141 390.863 397.283 394.342 393.143 396.807C384.96 401.685 376.263 405.574 366.519 406.178C357.418 406.743 350.531 403.001 345.435 395.472L345.441 395.478ZM361.539 420.76C376.962 420.305 390.788 415.087 403.567 406.922C403.83 412.455 399.838 415.401 395.8 417.782C386.051 423.533 375.749 427.224 364.222 423.469C363.31 423.174 362.103 423.065 361.539 420.76ZM410.845 429.554C403.304 439.567 385.492 447.371 373.175 443.54C371.102 442.891 368.984 442.14 367.508 439.303C384.074 439.175 398.785 434.887 411.153 424.169C414.562 426.312 411.885 428.174 410.845 429.56V429.554ZM425.55 264.381C418.689 248.72 407.463 237.167 392.444 229.201C391.083 228.482 389.555 228.072 388.085 227.577C382.61 225.735 380.345 222.391 382.148 217.988C383.952 213.579 387.591 213.418 391.718 214.471C400.133 216.615 407.45 221.005 414.074 226.242C424.375 234.394 432.508 244.458 437.309 256.903C438.573 260.17 439.606 263.47 437.578 267.269C431.725 271.409 428.226 270.491 425.55 264.381ZM442.694 280.119C444.812 282.885 445.255 286.339 442.405 289.066C439.767 291.589 436.474 292.237 433.458 289.798C429.863 286.897 429.908 283.36 432.867 279.419C436.641 276.396 440.107 276.749 442.687 280.113L442.694 280.119ZM359.157 398.745C355.358 385.292 351.5 371.865 346.552 358.771C344.979 354.605 343.047 351.98 337.88 351.415C330.024 350.555 324.812 343.655 325.839 337.205C327.142 328.976 335.55 324.958 342.771 329.207C344.543 330.254 346.231 331.557 347.675 333.02C349.69 335.061 351.654 335.491 354.119 333.906C356.378 332.455 358.451 331.12 357.758 327.808C356.802 323.206 357.765 319.137 362.187 316.679C365.467 314.856 368.676 315.703 371.365 317.949C375.396 321.326 376.346 325.928 374.703 330.652C373.779 333.296 373.965 335.215 374.703 337.898C379.279 354.432 385.268 370.42 392.014 386.159C393.779 390.266 391.994 393.341 387.989 394.849C383.592 396.505 380.486 394.464 378.824 390.459C373.522 377.699 367.681 365.151 364.055 351.743C363.541 349.843 363.862 345.549 359.228 348.437C360.261 357.128 364.273 364.708 366.301 372.892C367.88 379.259 369.767 385.549 371.423 391.897C371.853 393.553 371.988 395.292 372.155 396.999C372.553 401.12 370.679 403.809 366.635 404.413C362.45 405.035 360.21 402.416 359.17 398.726L359.157 398.745ZM555.53 413.906C556.833 418.488 554.933 420.805 548.842 422.821C540.967 425.427 533.156 428.251 525.351 431.056C522.507 432.076 519.927 431.941 517.257 429.669C513.849 422.737 514.978 419.888 521.705 417.532C529.529 414.791 537.302 411.89 545.209 409.419C551.05 407.596 554.202 409.207 555.537 413.906H555.53ZM601.756 368.983C603.059 372.77 601.621 375.953 597.899 377.494C592.956 379.541 587.892 381.332 582.809 383.001C562.129 389.791 541.429 396.518 520.717 403.219C517.597 404.227 514.42 405.157 510.607 404.676C506.127 403.527 505.466 400.555 505.723 396.942C505.98 393.296 508.444 392.108 511.461 391.229C519.747 388.809 528.059 386.441 536.269 383.758C553.656 378.078 570.986 372.218 588.342 366.435C590.145 365.838 591.936 365.093 593.791 364.798C597.398 364.227 600.517 365.356 601.769 368.983H601.756ZM525.081 372.616C517.738 374.856 510.794 376.999 503.875 379.22C499.767 380.542 495.935 378.841 494.613 374.997C493.201 370.889 495.12 367.352 499.869 365.863C513.059 361.723 526.313 357.789 539.484 353.591C553.322 349.175 567.084 344.541 580.89 340.016C583.354 339.207 585.826 338.514 588.496 338.566C592.36 338.643 594.876 340.613 595.659 344.13C596.506 347.949 594.15 350.465 590.742 351.64C584.689 353.72 578.515 355.465 572.417 357.423C556.769 362.449 541.134 367.513 525.081 372.628V372.616Z" fill="white"/>
</g>
<defs>
<filter id="filter0_d_8226_14204" x="98" y="584.482" width="622.305" height="168.016" filterUnits="userSpaceOnUse" color-interpolation-filters="sRGB">
<feFlood flood-opacity="0" result="BackgroundImageFix"/>
<feColorMatrix in="SourceAlpha" type="matrix" values="0 0 0 0 0 0 0 0 0 0 0 0 0 0 0 0 0 0 127 0" result="hardAlpha"/>
<feOffset dy="4"/>
<feGaussianBlur stdDeviation="1"/>
<feComposite in2="hardAlpha" operator="out"/>
<feColorMatrix type="matrix" values="0 0 0 0 0 0 0 0 0 0 0 0 0 0 0 0 0 0 0.5 0"/>
<feBlend mode="normal" in2="BackgroundImageFix" result="effect1_dropShadow_8226_14204"/>
<feBlend mode="normal" in="SourceGraphic" in2="effect1_dropShadow_8226_14204" result="shape"/>
</filter>
<filter id="filter1_d_8226_14204" x="98" y="758.499" width="704.004" height="69.7114" filterUnits="userSpaceOnUse" color-interpolation-filters="sRGB">
<feFlood flood-opacity="0" result="BackgroundImageFix"/>
<feColorMatrix in="SourceAlpha" type="matrix" values="0 0 0 0 0 0 0 0 0 0 0 0 0 0 0 0 0 0 127 0" result="hardAlpha"/>
<feOffset dy="2"/>
<feGaussianBlur stdDeviation="1"/>
<feComposite in2="hardAlpha" operator="out"/>
<feColorMatrix type="matrix" values="0 0 0 0 0 0 0 0 0 0 0 0 0 0 0 0 0 0 0.8 0"/>
<feBlend mode="normal" in2="BackgroundImageFix" result="effect1_dropShadow_8226_14204"/>
<feBlend mode="normal" in="SourceGraphic" in2="effect1_dropShadow_8226_14204" result="shape"/>
</filter>
<filter id="filter2_d_8226_14204" x="740.652" y="586.367" width="61.0195" height="164.909" filterUnits="userSpaceOnUse" color-interpolation-filters="sRGB">
<feFlood flood-opacity="0" result="BackgroundImageFix"/>
<feColorMatrix in="SourceAlpha" type="matrix" values="0 0 0 0 0 0 0 0 0 0 0 0 0 0 0 0 0 0 127 0" result="hardAlpha"/>
<feOffset dy="2"/>
<feGaussianBlur stdDeviation="1"/>
<feComposite in2="hardAlpha" operator="out"/>
<feColorMatrix type="matrix" values="0 0 0 0 0 0 0 0 0 0 0 0 0 0 0 0 0 0 0.8 0"/>
<feBlend mode="normal" in2="BackgroundImageFix" result="effect1_dropShadow_8226_14204"/>
<feBlend mode="normal" in="SourceGraphic" in2="effect1_dropShadow_8226_14204" result="shape"/>
</filter>
<filter id="filter3_d_8226_14204" x="230.926" y="76" width="439.336" height="454.033" filterUnits="userSpaceOnUse" color-interpolation-filters="sRGB">
<feFlood flood-opacity="0" result="BackgroundImageFix"/>
<feColorMatrix in="SourceAlpha" type="matrix" values="0 0 0 0 0 0 0 0 0 0 0 0 0 0 0 0 0 0 127 0" result="hardAlpha"/>
<feOffset dy="2"/>
<feGaussianBlur stdDeviation="1"/>
<feComposite in2="hardAlpha" operator="out"/>
<feColorMatrix type="matrix" values="0 0 0 0 0 0 0 0 0 0 0 0 0 0 0 0 0 0 0.5 0"/>
<feBlend mode="normal" in2="BackgroundImageFix" result="effect1_dropShadow_8226_14204"/>
<feBlend mode="normal" in="SourceGraphic" in2="effect1_dropShadow_8226_14204" result="shape"/>
</filter>
<linearGradient id="paint0_linear_8226_14204" x1="167.332" y1="584.482" x2="167.332" y2="746.499" gradientUnits="userSpaceOnUse">
<stop stop-color="#FFB800"/>
<stop offset="1" stop-color="#FF4D15"/>
</linearGradient>
<linearGradient id="paint1_linear_8226_14204" x1="328.436" y1="584.489" x2="328.436" y2="746.498" gradientUnits="userSpaceOnUse">
<stop stop-color="#FFB800"/>
<stop offset="1" stop-color="#FF4D15"/>
</linearGradient>
<linearGradient id="paint2_linear_8226_14204" x1="489.7" y1="584.489" x2="489.7" y2="746.498" gradientUnits="userSpaceOnUse">
<stop stop-color="#FFB800"/>
<stop offset="1" stop-color="#FF4D15"/>
</linearGradient>
<linearGradient id="paint3_linear_8226_14204" x1="650.868" y1="584.489" x2="650.868" y2="746.498" gradientUnits="userSpaceOnUse">
<stop stop-color="#FFB800"/>
<stop offset="1" stop-color="#FF4D15"/>
</linearGradient>
<linearGradient id="paint4_linear_8226_14204" x1="517.929" y1="76" x2="517.929" y2="243.474" gradientUnits="userSpaceOnUse">
<stop stop-color="#FFB800"/>
<stop offset="1" stop-color="#FF4D15"/>
</linearGradient>
<linearGradient id="paint5_linear_8226_14204" x1="419.872" y1="281.449" x2="419.872" y2="526.033" gradientUnits="userSpaceOnUse">
<stop stop-color="#FFB800"/>
<stop offset="1" stop-color="#FF4D15"/>
</linearGradient>
</defs>
</svg>
