<?xml version="1.0" encoding="utf-8"?>
<svg version="1.1" id="Layer_1" xmlns="http://www.w3.org/2000/svg" xmlns:xlink="http://www.w3.org/1999/xlink" x="0px" y="0px"
	 viewBox="0 0 1033 1033" style="enable-background:new 0 0 1033 1033;" xml:space="preserve">
<style type="text/css">
	.st0{stroke:#019529;stroke-miterlimit:10;}
	.st1{fill:#FFFFFF;}
</style>
<g id="Layer_2_00000163068978919978479170000017461061110547739816_">
	<rect class="st0" width="1033" height="1033" fill="#019529"/>
</g>
<g transform="translate(-100, 0)">
<g id="Layer_1_00000179619734321978318560000017224077353952509112_">
	<path class="st1" d="M262.9,715.3l27.2-46.4l10-16.9l6.9-9.5l8.2-1.1h47.5V72.9h569.9v332.3h-80.2l-8.4-1.1l-9.3-9.5l-15.6-19
		l-67.5-81.2l-14-16.9l-8.5-8.4l-8.4-1.1h-229l-8.3,1.1l-7.6,10.5l-12.9,22.2l-42.4,72.8L400,409.4l33.8,14.8
		c2.6,1.2,10.8,5.4,13.2,4.6c2-0.6,3.7-4,4.7-5.7l10.1-16.9l35.7-59.1c2.5-4.2,9.6-17.7,13.5-19.4c1.8-0.7,5.2-0.6,7.2-0.6h99.2
		l-14.6,28.5L559,441.1L540.3,478l-4.1,20l-8.2,43.2l-23.6,122.4h-89.7l-17.9,1.1h-59.1c-12.3,0-11.4,4.1-18.6,16.9l-28.9,52.7
		h261.6l8.8-1.7l3.9-13.1l6.6-30.6l20.5-93.9l12.9-58c5,6.3,12,23.5,16,31.6l28.6,58l27.8,55.9l47.5,97l28,57
		c2.2,4.4,7,16.6,11.4,18.4c1.9,0.7,5.3,0.6,7.3,0.6h65.4l-11.9-25.3L796,769l-79.1-169.8l-34.5-73.8c-2.5-5.9-11.5-21.9-11.2-27.4
		c0.2-5.3,3.7-10.2,6.1-14.8l15.2-28.5l45.8-86.5c7.5,3.6,23.7,21.5,29.9,28.5l21.8,22.2l14.8,15.8l13.7,13.7c2,2,5.1,5.7,7.6,6.8
		c1.8,0.7,5.2,0.6,7.2,0.6h30.6l16.9,1.1h51.7V864H362.7V757.5H238.2L262.9,715.3z M910.2,896.7L868,938.9l-21.1,19.4l-7.4,0.6
		h-99.2l57-51.6h-68.6c-2.3-0.1-5.2-0.2-7.4,0c-4.2,1.2-22.8,11-27.4,13.6l-31.6,16l-20,10.5c-10.3,5.2-18.8,11.4-30.6,11.4H422.8
		L407,960h-96l-16.9-1.1h-19l22.2-23.2l41.1-41.1l21.1-19.4l7.4-0.6h180.4l15.8,1.1H849l7.9,1.1l5.6,8.4l8.6,17.9l24.3-17.8
		c3.4-2.5,12.6-9.6,15.8-10.9c5.5-2.1,16.1-1.9,22.2-1.9L910.2,896.7z"/>
    <circle cx="720" cy="180" r="68" fill="#019529"/>
</g>
</g>
</svg>
