<svg width="150" height="99" viewBox="210 -7 40 50" fill="none" xmlns="http://www.w3.org/2000/svg">
<path d="
M226.556 32.714C226.156 32.666 223.521 32.301 222.185 30.908C221.275 29.7483 220.807 28.3021 220.867 26.829C220.873 26.6246 220.958 26.4306 221.105 26.288C221.251 26.1454 221.447 26.0654 221.652 26.065C221.676 26.065 221.699 26.065 221.722 26.065C222.479 26.0969 223.222 26.2809 223.907 26.6061C224.592 26.9314 225.204 27.3911 225.707 27.958C226.616 29.2031 227.12 30.6977 227.151 32.239C227.151 32.3126 227.135 32.3853 227.103 32.4515C227.071 32.5178 227.024 32.5759 226.966 32.6213C226.908 32.6667 226.841 32.6984 226.769 32.7137C226.697 32.7291 226.622 32.7278 226.551 32.71L226.556 32.714ZM241.64 32.621C241.576 32.6199 241.513 32.6016 241.458 32.568L228.966 27.441C228.647 27.3396 228.369 27.1397 228.172 26.8702C227.974 26.6006 227.867 26.2753 227.866 25.941C227.866 25.893 227.868 25.8457 227.872 25.799V21.416C227.872 21.416 227.872 21.406 227.872 21.402C227.873 21.3389 227.89 21.2771 227.922 21.2227C227.954 21.1683 227.999 21.1232 228.054 21.0918C228.109 21.0605 228.171 21.044 228.234 21.0441C228.297 21.0441 228.359 21.0606 228.414 21.092L241.225 26.503C241.255 26.514 241.284 26.526 241.312 26.54C241.521 26.6379 241.698 26.7933 241.822 26.9881C241.946 27.183 242.012 27.4091 242.012 27.64L242.005 32.24C242.005 32.249 242.005 32.259 242.005 32.268C242.003 32.3631 241.965 32.4537 241.897 32.5205C241.829 32.5872 241.738 32.6247 241.643 32.625L241.64 32.621Z
M226.556 24.357C226.156 24.309 223.521 23.944 222.185 22.55C221.275 21.3903 220.807 19.9441 220.867 18.471C220.873 18.2666 220.958 18.0726 221.105 17.93C221.251 17.7874 221.447 17.7074 221.652 17.707C221.676 17.707 221.699 17.707 221.722 17.707C222.479 17.7389 223.222 17.9229 223.907 18.2481C224.592 18.5734 225.204 19.0331 225.707 19.6C226.616 20.8451 227.12 22.3397 227.151 23.881C227.151 23.9546 227.135 24.0273 227.103 24.0936C227.071 24.1599 227.024 24.218 226.966 24.2635C226.908 24.309 226.841 24.3407 226.769 24.3562C226.697 24.3717 226.622 24.3706 226.551 24.353L226.556 24.357Z
M231.756 20.55L228.714 19.32C228.68 19.308 228.647 19.2943 228.614 19.279L228.6 19.273C228.343 19.1541 228.127 18.9632 227.977 18.7235C227.826 18.4838 227.749 18.2056 227.754 17.9229C227.759 17.6401 227.847 17.3648 228.005 17.1307C228.164 16.8965 228.387 16.7136 228.648 16.604L241.269 10.838C241.325 10.8153 241.385 10.8068 241.445 10.8132C241.504 10.8196 241.562 10.8408 241.611 10.8748C241.661 10.9088 241.701 10.9546 241.729 11.008C241.756 11.0615 241.77 11.1209 241.769 11.181C241.769 11.19 241.769 11.199 241.769 11.208L241.653 15.964C241.653 15.976 241.653 15.988 241.653 16C241.653 16.2535 241.574 16.5006 241.426 16.7068C241.279 16.9131 241.071 17.068 240.831 17.15L233.145 20.567C232.93 20.6804 232.69 20.7381 232.447 20.7348C232.205 20.7315 231.966 20.6672 231.755 20.548L231.756 20.55
M226.556 15.996C226.156 15.948 223.521 15.583 222.185 14.19C221.275 13.0303 220.807 11.5841 220.867 10.111C220.873 9.90654 220.958 9.71238 221.104 9.56972C221.251 9.42707 221.447 9.34717 221.652 9.34699C221.676 9.34699 221.699 9.34699 221.722 9.34699C222.479 9.37888 223.222 9.56292 223.907 9.88815C224.592 10.2134 225.204 10.6731 225.707 11.24C226.616 12.4851 227.12 13.9797 227.151 15.521C227.151 15.5946 227.135 15.6673 227.103 15.7335C227.071 15.7998 227.024 15.8579 226.966 15.9033C226.908 15.9487 226.841 15.9804 226.769 15.9957C226.697 16.0111 226.622 16.0098 226.551 15.992L226.556 15.996Z
M236.433 10.45C236.426 10.4512 236.418 10.4512 236.411 10.45C236.334 10.404 228.427 6.92999 228.427 6.92999C228.243 6.83747 228.086 6.69986 227.97 6.53003C227.854 6.3602 227.783 6.16372 227.764 5.95899C227.764 5.95633 227.764 5.95365 227.764 5.95099C227.764 5.95099 227.764 5.94199 227.764 5.93299C227.764 5.90366 227.764 5.87399 227.764 5.84399C227.764 5.82199 227.764 5.79999 227.764 5.77799C227.764 5.02199 227.764 2.05199 227.764 1.60499C227.762 1.58002 227.762 1.55496 227.764 1.52999C227.765 1.4424 227.788 1.3564 227.829 1.27932C227.871 1.20224 227.93 1.13635 228.003 1.08726C228.076 1.03817 228.159 1.00733 228.246 0.997355C228.333 0.987385 228.421 0.998582 228.503 1.02999L240.818 6.41699C241.04 6.50532 241.235 6.65163 241.381 6.84069C241.528 7.02975 241.621 7.25464 241.651 7.49194C241.681 7.72925 241.647 7.97029 241.553 8.18997C241.458 8.40964 241.306 8.59992 241.113 8.74099L239.046 10.141C238.685 10.4326 238.249 10.6169 237.788 10.6728C237.327 10.7287 236.86 10.6539 236.44 10.457L236.433 10.45Z
M226.556 7.63399C226.156 7.58599 223.521 7.22099 222.185 5.82799C221.275 4.66828 220.807 3.22212 220.867 1.74899C220.873 1.54463 220.958 1.3506 221.105 1.20801C221.251 1.06541 221.447 0.985425 221.652 0.984993C221.676 0.984993 221.699 0.984993 221.722 0.984993C222.479 1.01688 223.222 1.20092 223.907 1.52615C224.592 1.85138 225.204 2.31113 225.707 2.87799C226.616 4.12313 227.12 5.61767 227.151 7.15899C227.151 7.23258 227.135 7.30528 227.103 7.37154C227.071 7.4378 227.024 7.49586 226.966 7.5413C226.908 7.58674 226.841 7.61835 226.769 7.63373C226.697 7.6491 226.622 7.64782 226.551 7.62999L226.556 7.63399Z" fill="#67997D"/>
</svg>
